<svg width="10" height="10" viewBox="0 0 10 10" fill="none" xmlns="http://www.w3.org/2000/svg">
<path d="M0.339458 4.87344C0.35313 4.84258 0.683989 4.10859 1.41954 3.37305C2.39961 2.39297 3.6375 1.875 5 1.875C6.3625 1.875 7.60039 2.39297 8.58047 3.37305C9.31602 4.10859 9.64844 4.84375 9.66055 4.87344C9.67832 4.9134 9.6875 4.95665 9.6875 5.00039C9.6875 5.04413 9.67832 5.08738 9.66055 5.12734C9.64688 5.1582 9.31602 5.8918 8.58047 6.62734C7.60039 7.60703 6.3625 8.125 5 8.125C3.6375 8.125 2.39961 7.60703 1.41954 6.62734C0.683989 5.8918 0.35313 5.1582 0.339458 5.12734C0.321689 5.08738 0.312508 5.04413 0.312508 5.00039C0.312508 4.95665 0.321689 4.9134 0.339458 4.87344ZM5 7.5C6.20235 7.5 7.25274 7.06289 8.12227 6.20117C8.47905 5.84636 8.78259 5.44178 9.02344 5C8.78265 4.55818 8.47911 4.15358 8.12227 3.79883C7.25274 2.93711 6.20235 2.5 5 2.5C3.79766 2.5 2.74727 2.93711 1.87774 3.79883C1.52026 4.1535 1.21606 4.55809 0.974614 5C1.25625 5.52578 2.48321 7.5 5 7.5ZM5 3.125C5.37084 3.125 5.73336 3.23497 6.0417 3.44099C6.35004 3.64702 6.59036 3.93986 6.73228 4.28247C6.87419 4.62508 6.91132 5.00208 6.83898 5.36579C6.76663 5.72951 6.58805 6.0636 6.32583 6.32583C6.06361 6.58805 5.72951 6.76663 5.3658 6.83897C5.00208 6.91132 4.62508 6.87419 4.28247 6.73227C3.93986 6.59036 3.64703 6.35004 3.441 6.04169C3.23497 5.73335 3.125 5.37084 3.125 5C3.12552 4.50288 3.32323 4.02626 3.67475 3.67475C4.02627 3.32323 4.50288 3.12552 5 3.125ZM5 6.25C5.24723 6.25 5.48891 6.17669 5.69447 6.03934C5.90003 5.90199 6.06024 5.70676 6.15485 5.47835C6.24946 5.24995 6.27422 4.99861 6.22599 4.75614C6.17775 4.51366 6.0587 4.29093 5.88389 4.11612C5.70907 3.9413 5.48634 3.82225 5.24387 3.77402C5.00139 3.72579 4.75006 3.75054 4.52165 3.84515C4.29324 3.93976 4.09802 4.09998 3.96067 4.30554C3.82332 4.5111 3.75 4.75277 3.75 5C3.75 5.33152 3.8817 5.64946 4.11612 5.88388C4.35054 6.1183 4.66848 6.25 5 6.25Z" fill="#ADADAD"/>
</svg>
