<svg width="10" height="10" viewBox="0 0 10 10" fill="none" xmlns="http://www.w3.org/2000/svg">
<path d="M4.06706 5.9862C3.82747 5.74703 3.68164 5.42203 3.68164 5.05745C3.68164 4.32703 4.26997 3.73828 4.99997 3.73828C5.36122 3.73828 5.69372 3.88453 5.92914 4.1237" stroke="#adadad" stroke-width="0.7" stroke-linecap="round" stroke-linejoin="round"/>
<path d="M4.16797 6.04175C4.45287 6.34122 4.71739 6.36762 5.23792 6.35046C5.775 6.25296 6.19833 5.8288 6.295 5.2913C6.34293 4.93596 6.30799 4.70128 6.04297 4.16675" stroke="#adadad" stroke-width="0.7" stroke-linecap="round" stroke-linejoin="round"/>
<path d="M2.77357 7.28024C2.11232 6.76107 1.55232 6.00274 1.14648 5.05732C1.55648 4.10774 2.12023 3.34524 2.78565 2.8219C3.4469 2.29857 4.20982 2.0144 5.00065 2.0144C5.79607 2.0144 6.55857 2.30274 7.22398 2.82982" stroke="#adadad" stroke-width="0.7" stroke-linecap="round" stroke-linejoin="round"/>
<path d="M7.29232 2.91674C7.32846 2.90225 7.5157 3.10258 8.10369 3.74623C8.39035 4.12707 8.64244 4.56665 8.85452 5.05707C8.03494 6.95582 6.5866 8.09957 5.00035 8.09957C4.64077 8.09957 4.28619 8.04123 3.94535 7.92748C3.31569 7.64216 3.02571 7.49849 2.70898 7.29174" stroke="#adadad" stroke-width="0.7" stroke-linecap="round" stroke-linejoin="round"/>
</svg>
