<svg width="18" height="18" viewBox="0 0 18 18" fill="none" xmlns="http://www.w3.org/2000/svg">
<path d="M4.04999 1.57501H13.95C14.775 1.57501 15.45 2.25001 15.45 3.07501V4.72501C15.45 5.32501 15.075 6.07501 14.7 6.45001L11.475 9.30001C11.025 9.67501 10.725 10.425 10.725 11.025V14.25C10.725 14.7 10.425 15.3 10.05 15.525L8.99999 16.2C8.02499 16.8 6.67499 16.125 6.67499 14.925V10.95C6.67499 10.425 6.37499 9.75001 6.07499 9.37501L3.22499 6.37501C2.84999 6.00001 2.54999 5.32501 2.54999 4.87501V3.15001C2.54999 2.25001 3.22499 1.57501 4.04999 1.57501Z" stroke="white" stroke-miterlimit="10" stroke-linecap="round" stroke-linejoin="round"/>
<path d="M8.1975 1.57501L4.5 7.50001" stroke="white" stroke-miterlimit="10" stroke-linecap="round" stroke-linejoin="round"/>
</svg>
