<svg width="10" height="10" viewBox="0 0 10 10" fill="none" xmlns="http://www.w3.org/2000/svg">
<path fill-rule="evenodd" clip-rule="evenodd" d="M6.60483 1.04206C6.86774 1.04206 7.13024 1.07914 7.37982 1.16289C8.91774 1.66289 9.47191 3.35039 9.00899 4.82539C8.74649 5.57914 8.31733 6.26706 7.75524 6.82914C6.95066 7.60831 6.06774 8.29997 5.11732 8.89581L5.01316 8.95872L4.90482 8.89164C3.95107 8.29997 3.06316 7.60831 2.25107 6.82498C1.69274 6.26289 1.26316 5.57914 0.996491 4.82539C0.525658 3.35039 1.07982 1.66289 2.63441 1.15414C2.75524 1.11248 2.87982 1.08331 3.00482 1.06706H3.05482C3.17191 1.04998 3.28816 1.04206 3.40482 1.04206H3.45066C3.71316 1.04998 3.96732 1.09581 4.21357 1.17956H4.23816C4.25482 1.18748 4.26732 1.19623 4.27566 1.20414C4.36774 1.23373 4.45482 1.26706 4.53816 1.31289L4.69649 1.38373C4.73475 1.40413 4.77769 1.43531 4.81481 1.46225C4.83832 1.47933 4.8595 1.4947 4.87566 1.50456C4.88246 1.50857 4.88937 1.51261 4.89634 1.51667C4.93206 1.53753 4.96928 1.55925 5.00066 1.58331C5.46357 1.22956 6.02566 1.03789 6.60483 1.04206ZM7.71316 4.04206C7.88399 4.03748 8.02983 3.90039 8.04233 3.72498V3.67539C8.05482 3.09164 7.70108 2.56289 7.16316 2.35873C6.99232 2.29998 6.80482 2.39206 6.74232 2.56706C6.68399 2.74206 6.77566 2.93373 6.95066 2.99581C7.21774 3.09581 7.39649 3.35873 7.39649 3.64998V3.66289C7.38858 3.75831 7.41733 3.85039 7.47566 3.92123C7.53399 3.99206 7.62149 4.03331 7.71316 4.04206Z" fill="#F2756D"/>
</svg>
