<svg width="10" height="10" viewBox="0 0 10 10" fill="none" xmlns="http://www.w3.org/2000/svg">
<rect width="10" height="10" transform="matrix(-1 0 0 1 10 0)" fill="white"/>
<path d="M3.04688 1.25C3.85352 1.25 4.55977 1.59688 5 2.1832C5.44023 1.59688 6.14648 1.25 6.95312 1.25C7.59522 1.25072 8.21082 1.50612 8.66485 1.96015C9.11888 2.41418 9.37428 3.02978 9.375 3.67188C9.375 6.40625 5.3207 8.61953 5.14805 8.71094C5.10254 8.73542 5.05167 8.74823 5 8.74823C4.94833 8.74823 4.89746 8.73542 4.85195 8.71094C4.6793 8.61953 0.625 6.40625 0.625 3.67188C0.625724 3.02978 0.881117 2.41418 1.33515 1.96015C1.78918 1.50612 2.40478 1.25072 3.04688 1.25ZM5 8.07813C5.71328 7.6625 8.75 5.76914 8.75 3.67188C8.74938 3.1955 8.55987 2.73882 8.22302 2.40198C7.88618 2.06513 7.4295 1.87562 6.95312 1.875C6.19336 1.875 5.55547 2.27969 5.28906 2.92969C5.26552 2.987 5.22547 3.03603 5.174 3.07053C5.12253 3.10503 5.06196 3.12345 5 3.12345C4.93804 3.12345 4.87747 3.10503 4.826 3.07053C4.77453 3.03603 4.73448 2.987 4.71094 2.92969C4.44453 2.27852 3.80664 1.875 3.04688 1.875C2.5705 1.87562 2.11382 2.06513 1.77698 2.40198C1.44013 2.73882 1.25062 3.1955 1.25 3.67188C1.25 5.76602 4.2875 7.66211 5 8.07813Z" fill="#ADADAD"/>
</svg>
