<svg width="14" height="14" viewBox="0 0 14 14" fill="none" xmlns="http://www.w3.org/2000/svg">
<g clip-path="url(#clip0_1_9675)">
<mask id="path-1-inside-1_1_9675" fill="white">
<path d="M7.53 1C7.87901 1 8.16194 1.28293 8.16194 1.63194V6.89806H13.4281C13.7771 6.89806 14.06 7.18099 14.06 7.53C14.06 7.87901 13.7771 8.16194 13.4281 8.16194H8.16194V13.4281C8.16194 13.7771 7.87901 14.06 7.53 14.06C7.18099 14.06 6.89806 13.7771 6.89806 13.4281V8.16194H1.63194C1.28293 8.16194 1 7.87901 1 7.53C1 7.18099 1.28293 6.89806 1.63194 6.89806H6.89806V1.63194C6.89806 1.28293 7.18099 1 7.53 1Z"/>
</mask>
<path d="M7.53 1C7.87901 1 8.16194 1.28293 8.16194 1.63194V6.89806H13.4281C13.7771 6.89806 14.06 7.18099 14.06 7.53C14.06 7.87901 13.7771 8.16194 13.4281 8.16194H8.16194V13.4281C8.16194 13.7771 7.87901 14.06 7.53 14.06C7.18099 14.06 6.89806 13.7771 6.89806 13.4281V8.16194H1.63194C1.28293 8.16194 1 7.87901 1 7.53C1 7.18099 1.28293 6.89806 1.63194 6.89806H6.89806V1.63194C6.89806 1.28293 7.18099 1 7.53 1Z" fill="white"/>
<path d="M8.16194 6.89806H6.16194V8.89806H8.16194V6.89806ZM8.16194 8.16194V6.16194H6.16194V8.16194H8.16194ZM6.89806 8.16194H8.89806V6.16194H6.89806V8.16194ZM6.89806 6.89806V8.89806H8.89806V6.89806H6.89806ZM10.1619 1.63194C10.1619 0.178358 8.98358 -1 7.53 -1V3C6.77444 3 6.16194 2.3875 6.16194 1.63194H10.1619ZM10.1619 6.89806V1.63194H6.16194V6.89806H10.1619ZM13.4281 4.89806H8.16194V8.89806H13.4281V4.89806ZM16.06 7.53C16.06 6.07642 14.8816 4.89806 13.4281 4.89806V8.89806C12.6725 8.89806 12.06 8.28556 12.06 7.53H16.06ZM13.4281 10.1619C14.8816 10.1619 16.06 8.98358 16.06 7.53H12.06C12.06 6.77444 12.6725 6.16194 13.4281 6.16194V10.1619ZM8.16194 10.1619H13.4281V6.16194H8.16194V10.1619ZM10.1619 13.4281V8.16194H6.16194V13.4281H10.1619ZM7.53 16.06C8.98358 16.06 10.1619 14.8816 10.1619 13.4281H6.16194C6.16194 12.6725 6.77444 12.06 7.53 12.06V16.06ZM4.89806 13.4281C4.89806 14.8816 6.07642 16.06 7.53 16.06V12.06C8.28556 12.06 8.89806 12.6725 8.89806 13.4281H4.89806ZM4.89806 8.16194V13.4281H8.89806V8.16194H4.89806ZM1.63194 10.1619H6.89806V6.16194H1.63194V10.1619ZM-1 7.53C-1 8.98358 0.178358 10.1619 1.63194 10.1619V6.16194C2.3875 6.16194 3 6.77444 3 7.53H-1ZM1.63194 4.89806C0.178358 4.89806 -1 6.07642 -1 7.53H3C3 8.28556 2.3875 8.89806 1.63194 8.89806V4.89806ZM6.89806 4.89806H1.63194V8.89806H6.89806V4.89806ZM4.89806 1.63194V6.89806H8.89806V1.63194H4.89806ZM7.53 -1C6.07642 -1 4.89806 0.178358 4.89806 1.63194H8.89806C8.89806 2.3875 8.28556 3 7.53 3V-1Z" fill="white" mask="url(#path-1-inside-1_1_9675)"/>
</g>
<defs>
<clipPath id="clip0_1_9675">
<rect width="14" height="14" fill="white"/>
</clipPath>
</defs>
</svg>
