<svg width="16" height="16" viewBox="0 0 16 16" fill="none" xmlns="http://www.w3.org/2000/svg">
<g clip-path="url(#clip0_1_9632)">
<path d="M8 1C8.2549 1 8.46153 1.20663 8.46153 1.46153V7.53847H14.5385C14.7934 7.53847 15 7.7451 15 8C15 8.2549 14.7934 8.46153 14.5385 8.46153H8.46153V14.5385C8.46153 14.7934 8.2549 15 8 15C7.7451 15 7.53847 14.7934 7.53847 14.5385V8.46153H1.46153C1.20663 8.46153 1 8.2549 1 8C1 7.7451 1.20663 7.53847 1.46153 7.53847H7.53847V1.46153C7.53847 1.20663 7.7451 1 8 1Z" fill="#222222"/>
</g>
<defs>
<clipPath id="clip0_1_9632">
<rect width="16" height="16" fill="white"/>
</clipPath>
</defs>
</svg>
