<svg width="381" height="184" viewBox="0 0 381 184" fill="none" xmlns="http://www.w3.org/2000/svg">
<path d="M0 15.1988C0 7.1568 6.51929 0.637512 14.5612 0.637512C22.6032 0.637512 29.1225 7.1568 29.1225 15.1988C29.1225 23.2407 22.6032 29.76 14.5612 29.76C6.51929 29.76 0 23.2407 0 15.1988Z" fill="#73AE62"/>
<path d="M12.1599 18.4792H17.3495V19.462H10.9804V19.0296C10.9804 18.4267 11.094 17.9069 11.3211 17.4701C11.557 17.0332 11.8453 16.6794 12.1861 16.4085C12.6054 16.0853 13.0947 15.7533 13.6539 15.4126L14.3091 15.0325C14.7634 14.7704 15.0998 14.5651 15.3182 14.4166C15.8774 14.0059 16.1569 13.4992 16.1569 12.8964C16.1569 12.4071 15.9953 12.0271 15.672 11.7562C15.3488 11.4767 14.9338 11.3369 14.4271 11.3369C13.9203 11.3369 13.4791 11.4592 13.1034 11.7038C12.719 11.9572 12.2997 12.3678 11.8453 12.9357L10.9935 12.3329C11.9109 11.0049 13.0466 10.3409 14.4008 10.3409C15.2745 10.3409 15.9778 10.5811 16.5108 11.0617C17.0524 11.5334 17.3233 12.1319 17.3233 12.8571C17.3233 13.3638 17.2184 13.7963 17.0088 14.1545C16.8078 14.5039 16.5457 14.7966 16.2225 15.0325C15.9429 15.2509 15.5191 15.5261 14.9513 15.8581L14.3353 16.2251L14.0863 16.3692C13.667 16.6226 13.3306 16.841 13.0772 17.0245C12.5443 17.4176 12.2385 17.9025 12.1599 18.4792Z" fill="white"/>
<path d="M50.5042 20.6987L49.5257 17.903H44.0565L43.0954 20.6987H40.9986L45.4718 8.29256H48.1802L52.6534 20.6987H50.5042ZM44.6506 16.1906H48.9316L48.4074 14.6704L48.0055 13.4997C47.423 11.8571 47.0211 10.6457 46.7998 9.86517C46.5319 10.7505 46.0368 12.2241 45.3146 14.286L45.1748 14.6879L44.6506 16.1906ZM55.9797 18.4621V20.6987H53.813V18.4621H55.9797ZM70.5373 20.6987L69.5587 17.903H64.0895L63.1285 20.6987H61.0317L65.5049 8.29256H68.2133L72.6865 20.6987H70.5373ZM64.6836 16.1906H68.9646L68.4404 14.6704L68.0386 13.4997C67.4561 11.8571 67.0542 10.6457 66.8329 9.86517C66.565 10.7505 66.0699 12.2241 65.3476 14.286L65.2078 14.6879L64.6836 16.1906ZM76.0127 18.4621V20.6987H73.846V18.4621H76.0127ZM92.143 9.81275L90.9373 11.2456C90.3199 10.7097 89.7549 10.337 89.2424 10.1273C88.7414 9.91759 88.1939 9.81275 87.5998 9.81275C86.3884 9.81275 85.4215 10.2438 84.6992 11.1058C83.977 11.9562 83.6159 13.0803 83.6159 14.4782C83.6159 15.8877 83.9712 17.0235 84.6818 17.8855C85.404 18.7475 86.3534 19.1785 87.53 19.1785C88.2056 19.1785 88.7939 19.0504 89.2948 18.7941C89.819 18.5262 90.4247 18.0894 91.112 17.4836L92.3526 18.8815C91.5489 19.627 90.78 20.1629 90.0461 20.489C89.3122 20.8152 88.4852 20.9783 87.5649 20.9783C85.7244 20.9783 84.2508 20.3726 83.1441 19.1611C82.0491 17.9496 81.5016 16.3886 81.5016 14.4782C81.5016 12.5794 82.0491 11.0301 83.1441 9.83022C84.2508 8.61873 85.7418 8.01298 87.6173 8.01298C88.491 8.01298 89.2773 8.15277 89.9762 8.43234C90.6752 8.71192 91.3974 9.17205 92.143 9.81275ZM101.964 16.3129C101.964 17.6758 101.545 18.7941 100.706 19.6678C99.879 20.5298 98.8131 20.9608 97.5084 20.9608C96.1921 20.9608 95.1145 20.5298 94.2758 19.6678C93.4487 18.8058 93.0352 17.6875 93.0352 16.3129C93.0352 14.9267 93.4487 13.8025 94.2758 12.9405C95.1145 12.0785 96.1921 11.6475 97.5084 11.6475C98.8131 11.6475 99.879 12.0843 100.706 12.958C101.545 13.82 101.964 14.9383 101.964 16.3129ZM94.9922 16.3129C94.9922 17.2215 95.2194 17.9554 95.6737 18.5145C96.128 19.062 96.7396 19.3358 97.5084 19.3358C98.2539 19.3358 98.8539 19.062 99.3082 18.5145C99.7741 17.9554 100.007 17.2215 100.007 16.3129C100.007 15.3926 99.78 14.6587 99.3256 14.1112C98.8713 13.5521 98.2656 13.2725 97.5084 13.2725C96.7396 13.2725 96.128 13.5521 95.6737 14.1112C95.2194 14.6587 94.9922 15.3926 94.9922 16.3129ZM109.707 20.6987L107.068 16.9245H105.6V20.6987H103.678V11.927H105.6V15.3518H107.086L109.514 11.927H111.576L108.606 16.0508L111.873 20.6987H109.707ZM119.449 18.0253L120.568 19.196C119.95 19.8251 119.333 20.2794 118.716 20.5589C118.11 20.8269 117.434 20.9608 116.689 20.9608C115.302 20.9608 114.207 20.5473 113.404 19.7202C112.6 18.8815 112.198 17.7632 112.198 16.3653C112.198 14.9791 112.588 13.8491 113.369 12.9754C114.161 12.0901 115.209 11.6475 116.514 11.6475C117.795 11.6475 118.786 12.0319 119.484 12.8007C120.195 13.5579 120.55 14.6121 120.55 15.9634C120.55 16.1847 120.539 16.4468 120.515 16.7497H114.085C114.155 17.5419 114.417 18.1709 114.871 18.6369C115.326 19.1028 115.943 19.3358 116.724 19.3358C117.225 19.3358 117.661 19.2426 118.034 19.0562C118.407 18.8698 118.879 18.5262 119.449 18.0253ZM114.138 15.3518H118.663C118.628 14.6762 118.419 14.1462 118.034 13.7618C117.65 13.3657 117.126 13.1677 116.462 13.1677C115.844 13.1677 115.332 13.3599 114.924 13.7443C114.528 14.1171 114.266 14.6529 114.138 15.3518ZM130.839 16.2954C130.839 17.6816 130.472 18.7999 129.738 19.6503C129.004 20.5007 128.073 20.9259 126.943 20.9259C125.743 20.9259 124.828 20.5123 124.199 19.6853V23.844H122.277V11.927H124.059V13.1677C124.7 12.1775 125.667 11.6824 126.96 11.6824C128.09 11.6824 129.016 12.1076 129.738 12.958C130.472 13.8084 130.839 14.9208 130.839 16.2954ZM128.236 18.4621C128.667 17.9146 128.882 17.1924 128.882 16.2954C128.882 15.3984 128.672 14.682 128.253 14.1462C127.834 13.5987 127.269 13.3249 126.558 13.3249C125.824 13.3249 125.23 13.5987 124.776 14.1462C124.333 14.682 124.112 15.3984 124.112 16.2954C124.112 17.204 124.339 17.9263 124.793 18.4621C125.248 18.998 125.836 19.2659 126.558 19.2659C127.257 19.2659 127.816 18.998 128.236 18.4621ZM138.474 11.927H140.57V20.6987H138.771V17.4836C138.771 15.8178 138.794 14.5947 138.841 13.8142C137.99 15.2587 137.396 16.2605 137.058 16.8196L134.664 20.6987H132.568V11.927H134.35V15.3169C134.35 16.5983 134.332 17.7574 134.297 18.7941C134.938 17.6525 135.526 16.6507 136.062 15.7887L138.474 11.927ZM150.424 20.6987H148.502V16.9245H144.728V20.6987H142.806V11.927H144.728V15.3518H148.502V11.927H150.424V20.6987ZM154.766 18.4621V20.6987L153.525 23.1101H152.407L153.508 20.6987H152.477V18.4621H154.766Z" fill="#449429"/>
<path d="M168.205 20.6987H166.283V16.9245H162.509V20.6987H160.587V11.927H162.509V15.3518H166.283V11.927H168.205V20.6987ZM177.823 14.7053V20.6987H176.093V19.7027C175.511 20.5531 174.544 20.9783 173.193 20.9783C172.249 20.9783 171.486 20.7686 170.904 20.3493C170.333 19.9299 170.048 19.3125 170.048 18.4971C170.048 17.5768 170.391 16.8953 171.079 16.4527C171.789 15.9867 172.756 15.6431 173.979 15.4217L175.989 15.0548V14.7403C175.989 14.2627 175.826 13.8957 175.499 13.6394C175.173 13.3715 174.731 13.2376 174.171 13.2376C173.636 13.2376 173.164 13.3482 172.756 13.5695C172.36 13.7792 171.894 14.152 171.358 14.6879L170.153 13.5695C171.224 12.2882 172.546 11.6475 174.119 11.6475C175.296 11.6475 176.204 11.9212 176.845 12.4687C177.497 13.0162 177.823 13.7618 177.823 14.7053ZM175.989 17.2565V16.4527L174.468 16.7672C173.548 16.9652 172.896 17.1807 172.511 17.4137C172.127 17.635 171.935 17.9612 171.935 18.3922C171.935 18.7184 172.069 18.9747 172.337 19.1611C172.616 19.3474 172.995 19.4406 173.472 19.4406C174.206 19.4406 174.806 19.2484 175.272 18.864C175.75 18.4679 175.989 17.9321 175.989 17.2565ZM187.775 13.2725C186.995 13.2725 186.389 13.5695 185.958 14.1636C185.538 14.7461 185.329 15.4625 185.329 16.3129C185.329 17.1633 185.538 17.8797 185.958 18.4621C186.389 19.0329 186.995 19.3183 187.775 19.3183C188.218 19.3183 188.62 19.2193 188.981 19.0213C189.353 18.8116 189.779 18.4447 190.256 17.9204L191.532 18.9863C190.961 19.7086 190.384 20.2211 189.802 20.524C189.22 20.8152 188.538 20.9608 187.758 20.9608C186.441 20.9608 185.381 20.5415 184.577 19.7027C183.774 18.8524 183.372 17.7224 183.372 16.3129C183.372 14.9034 183.779 13.7734 184.595 12.923C185.41 12.0727 186.47 11.6475 187.775 11.6475C188.509 11.6475 189.155 11.7756 189.715 12.0319C190.274 12.2882 190.833 12.7133 191.392 13.3074L190.169 14.4956C189.703 14.0297 189.289 13.7093 188.928 13.5346C188.579 13.3599 188.194 13.2725 187.775 13.2725ZM201.259 16.3129C201.259 17.6758 200.84 18.7941 200.001 19.6678C199.174 20.5298 198.108 20.9608 196.804 20.9608C195.487 20.9608 194.41 20.5298 193.571 19.6678C192.744 18.8058 192.33 17.6875 192.33 16.3129C192.33 14.9267 192.744 13.8025 193.571 12.9405C194.41 12.0785 195.487 11.6475 196.804 11.6475C198.108 11.6475 199.174 12.0843 200.001 12.958C200.84 13.82 201.259 14.9383 201.259 16.3129ZM194.287 16.3129C194.287 17.2215 194.514 17.9554 194.969 18.5145C195.423 19.062 196.035 19.3358 196.804 19.3358C197.549 19.3358 198.149 19.062 198.603 18.5145C199.069 17.9554 199.302 17.2215 199.302 16.3129C199.302 15.3926 199.075 14.6587 198.621 14.1112C198.166 13.5521 197.561 13.2725 196.804 13.2725C196.035 13.2725 195.423 13.5521 194.969 14.1112C194.514 14.6587 194.287 15.3926 194.287 16.3129ZM209.089 13.4822H204.896V20.6987H202.973V11.927H209.089V13.4822ZM208.875 20.6813L209.05 19.1261C209.365 19.1727 209.586 19.196 209.714 19.196C210.227 19.1611 210.547 18.963 210.675 18.6019C210.803 18.2408 210.879 17.3671 210.902 15.9809L210.937 11.927H217.752V20.6987H215.83V13.4822H212.685L212.65 16.0158C212.626 17.868 212.446 19.1203 212.108 19.7726C211.77 20.4133 211.083 20.757 210.046 20.8036C209.603 20.8036 209.213 20.7628 208.875 20.6813ZM227.343 14.7053V20.6987H225.613V19.7027C225.031 20.5531 224.064 20.9783 222.712 20.9783C221.769 20.9783 221.006 20.7686 220.423 20.3493C219.853 19.9299 219.567 19.3125 219.567 18.4971C219.567 17.5768 219.911 16.8953 220.598 16.4527C221.309 15.9867 222.276 15.6431 223.499 15.4217L225.508 15.0548V14.7403C225.508 14.2627 225.345 13.8957 225.019 13.6394C224.693 13.3715 224.25 13.2376 223.691 13.2376C223.155 13.2376 222.683 13.3482 222.276 13.5695C221.88 13.7792 221.414 14.152 220.878 14.6879L219.672 13.5695C220.744 12.2882 222.066 11.6475 223.639 11.6475C224.815 11.6475 225.724 11.9212 226.364 12.4687C227.017 13.0162 227.343 13.7618 227.343 14.7053ZM225.508 17.2565V16.4527L223.988 16.7672C223.068 16.9652 222.415 17.1807 222.031 17.4137C221.647 17.635 221.454 17.9612 221.454 18.3922C221.454 18.7184 221.588 18.9747 221.856 19.1611C222.136 19.3474 222.514 19.4406 222.992 19.4406C223.726 19.4406 224.326 19.2484 224.792 18.864C225.269 18.4679 225.508 17.9321 225.508 17.2565ZM233.404 13.2725C232.624 13.2725 232.018 13.5695 231.587 14.1636C231.167 14.7461 230.958 15.4625 230.958 16.3129C230.958 17.1633 231.167 17.8797 231.587 18.4621C232.018 19.0329 232.624 19.3183 233.404 19.3183C233.847 19.3183 234.249 19.2193 234.61 19.0213C234.983 18.8116 235.408 18.4447 235.885 17.9204L237.161 18.9863C236.59 19.7086 236.013 20.2211 235.431 20.524C234.849 20.8152 234.167 20.9608 233.387 20.9608C232.07 20.9608 231.01 20.5415 230.206 19.7027C229.403 18.8524 229.001 17.7224 229.001 16.3129C229.001 14.9034 229.408 13.7734 230.224 12.923C231.039 12.0727 232.099 11.6475 233.404 11.6475C234.138 11.6475 234.784 11.7756 235.344 12.0319C235.903 12.2882 236.462 12.7133 237.021 13.3074L235.798 14.4956C235.332 14.0297 234.918 13.7093 234.557 13.5346C234.208 13.3599 233.823 13.2725 233.404 13.2725ZM246.888 16.3129C246.888 17.6758 246.469 18.7941 245.63 19.6678C244.803 20.5298 243.737 20.9608 242.433 20.9608C241.116 20.9608 240.039 20.5298 239.2 19.6678C238.373 18.8058 237.959 17.6875 237.959 16.3129C237.959 14.9267 238.373 13.8025 239.2 12.9405C240.039 12.0785 241.116 11.6475 242.433 11.6475C243.737 11.6475 244.803 12.0843 245.63 12.958C246.469 13.82 246.888 14.9383 246.888 16.3129ZM239.916 16.3129C239.916 17.2215 240.144 17.9554 240.598 18.5145C241.052 19.062 241.664 19.3358 242.433 19.3358C243.178 19.3358 243.778 19.062 244.232 18.5145C244.698 17.9554 244.931 17.2215 244.931 16.3129C244.931 15.3926 244.704 14.6587 244.25 14.1112C243.795 13.5521 243.19 13.2725 242.433 13.2725C241.664 13.2725 241.052 13.5521 240.598 14.1112C240.144 14.6587 239.916 15.3926 239.916 16.3129ZM256.483 18.2524C256.483 18.998 256.221 19.5921 255.697 20.0347C255.172 20.4774 254.45 20.6987 253.53 20.6987H248.602V11.927H253.233C254.142 11.927 254.87 12.1367 255.417 12.5561C255.976 12.9638 256.256 13.5288 256.256 14.251C256.256 14.7053 256.122 15.1072 255.854 15.4567C255.586 15.7945 255.225 16.0391 254.771 16.1906C255.306 16.3304 255.726 16.5808 256.029 16.9419C256.332 17.2914 256.483 17.7282 256.483 18.2524ZM250.49 13.3773V15.579H252.901C253.868 15.579 254.351 15.2004 254.351 14.4432C254.351 13.7326 253.874 13.3773 252.918 13.3773H250.49ZM252.953 19.2135C254.013 19.2135 254.543 18.8291 254.543 18.0602C254.543 17.2914 254.002 16.907 252.918 16.907H250.49V19.2135H252.953ZM265.652 14.7053V20.6987H263.922V19.7027C263.339 20.5531 262.372 20.9783 261.021 20.9783C260.077 20.9783 259.314 20.7686 258.732 20.3493C258.161 19.9299 257.876 19.3125 257.876 18.4971C257.876 17.5768 258.219 16.8953 258.907 16.4527C259.617 15.9867 260.584 15.6431 261.807 15.4217L263.817 15.0548V14.7403C263.817 14.2627 263.654 13.8957 263.328 13.6394C263.001 13.3715 262.559 13.2376 262 13.2376C261.464 13.2376 260.992 13.3482 260.584 13.5695C260.188 13.7792 259.722 14.152 259.186 14.6879L257.981 13.5695C259.052 12.2882 260.375 11.6475 261.947 11.6475C263.124 11.6475 264.032 11.9212 264.673 12.4687C265.325 13.0162 265.652 13.7618 265.652 14.7053ZM263.817 17.2565V16.4527L262.297 16.7672C261.376 16.9652 260.724 17.1807 260.34 17.4137C259.955 17.635 259.763 17.9612 259.763 18.3922C259.763 18.7184 259.897 18.9747 260.165 19.1611C260.444 19.3474 260.823 19.4406 261.301 19.4406C262.034 19.4406 262.634 19.2484 263.1 18.864C263.578 18.4679 263.817 17.9321 263.817 17.2565ZM275.452 20.6987H273.53V16.9245H269.756V20.6987H267.834V11.927H269.756V15.3518H273.53V11.927H275.452V20.6987ZM283.603 11.927H285.699V20.6987H283.9V17.4836C283.9 15.8178 283.923 14.5947 283.969 13.8142C283.119 15.2587 282.525 16.2605 282.187 16.8196L279.793 20.6987H277.696V11.927H279.479V15.3169C279.479 16.5983 279.461 17.7574 279.426 18.7941C280.067 17.6525 280.655 16.6507 281.191 15.7887L283.603 11.927ZM293.841 11.927H295.938V20.6987H294.138V17.4836C294.138 15.8178 294.161 14.5947 294.208 13.8142C293.357 15.2587 292.763 16.2605 292.426 16.8196L290.032 20.6987H287.935V11.927H289.717V15.3169C289.717 16.5983 289.7 17.7574 289.665 18.7941C290.305 17.6525 290.894 16.6507 291.43 15.7887L293.841 11.927Z" fill="black"/>
<rect width="0" height="27.6664" transform="translate(14.5613 29.76)" fill="#449429"/>
<path d="M14.5613 34.1284V53.058" stroke="#449429" stroke-width="0.728062"/>
<path d="M42.8698 43.5587H49.2127V44.76H41.4283V44.2314C41.4283 43.4946 41.5671 42.8593 41.8447 42.3254C42.133 41.7915 42.4854 41.359 42.9019 41.028C43.4144 40.6329 44.0124 40.2271 44.6958 39.8106L45.4967 39.3461C46.0519 39.0258 46.463 38.7749 46.73 38.5933C47.4134 38.0914 47.7551 37.4721 47.7551 36.7353C47.7551 36.1373 47.5576 35.6728 47.1625 35.3418C46.7674 35.0001 46.2602 34.8292 45.6408 34.8292C45.0215 34.8292 44.4822 34.9787 44.0231 35.2777C43.5532 35.5874 43.0407 36.0893 42.4854 36.7834L41.4443 36.0466C42.5655 34.4235 43.9537 33.6119 45.6088 33.6119C46.6766 33.6119 47.5362 33.9056 48.1876 34.4929C48.8496 35.0695 49.1807 35.801 49.1807 36.6873C49.1807 37.3066 49.0525 37.8352 48.7962 38.273C48.5506 38.7001 48.2303 39.0578 47.8352 39.3461C47.4935 39.6131 46.9756 39.9495 46.2815 40.3552L45.5287 40.8037L45.2244 40.9799C44.7118 41.2896 44.3007 41.5565 43.991 41.7808C43.3397 42.2613 42.9659 42.8539 42.8698 43.5587ZM58.3457 41.4604C58.3457 42.4001 57.9987 43.2277 57.3046 43.9431C56.6105 44.6586 55.6762 45.0163 54.5016 45.0163C53.1454 45.0163 51.8 44.5678 50.4652 43.6708L51.186 42.6297C51.8694 43.0568 52.4513 43.3612 52.9319 43.5427C53.4124 43.7135 53.9196 43.799 54.4535 43.799C55.1903 43.799 55.7829 43.5854 56.2314 43.1583C56.6906 42.7205 56.9202 42.1599 56.9202 41.4765C56.9202 40.8037 56.6906 40.2805 56.2314 39.9067C55.7723 39.5223 55.1316 39.3301 54.3093 39.3301C53.7648 39.3301 53.3323 39.3995 53.0119 39.5383L52.3552 38.6414L56.2635 35.0695H51.0098V33.8682H58.0254V35.0375L54.5016 38.2409H54.7098C55.7669 38.2409 56.6372 38.5293 57.3206 39.1059C58.004 39.6825 58.3457 40.4674 58.3457 41.4604ZM69.3298 36.8795H70.8194V44.76H69.522V41.5245C69.522 40.2218 69.538 39.1326 69.57 38.257C68.908 39.3568 68.2993 40.3285 67.744 41.1721L65.4055 44.76H63.9319V36.8795H65.2293V40.3713C65.2293 41.407 65.2133 42.3894 65.1813 43.3184C66.0142 41.973 66.6175 41.0226 66.9912 40.4674L69.3298 36.8795ZM82.6139 37.8245C83.34 38.5933 83.7031 39.5917 83.7031 40.8197C83.7031 42.0477 83.34 43.0515 82.6139 43.831C81.8878 44.5998 80.9534 44.9843 79.8109 44.9843C78.7324 44.9843 77.8354 44.6372 77.1199 43.9431C76.4045 43.2384 76.0041 42.3307 75.9186 41.2202H74.381V44.76H73.0035V36.8795H74.381V40.1951H75.9347C76.0628 39.1272 76.4793 38.273 77.184 37.6323C77.8781 36.9809 78.7537 36.6552 79.8109 36.6552C80.9534 36.6552 81.8878 37.045 82.6139 37.8245ZM81.6208 43.0141C82.0693 42.4588 82.2936 41.7274 82.2936 40.8197C82.2936 39.9121 82.0693 39.186 81.6208 38.6414C81.1723 38.0861 80.569 37.8085 79.8109 37.8085C79.0527 37.8085 78.444 38.0861 77.9849 38.6414C77.5364 39.1966 77.3122 39.9228 77.3122 40.8197C77.3122 41.7167 77.5364 42.4428 77.9849 42.9981C78.444 43.5534 79.0527 43.831 79.8109 43.831C80.569 43.831 81.1723 43.5587 81.6208 43.0141ZM91.9914 44.76H90.6139V41.2522H86.7858V44.76H85.4083V36.8795H86.7858V40.115H90.6139V36.8795H91.9914V44.76ZM96.7775 36.8795H100.349V44.76H99.036V41.9249H97.5624L95.1437 44.76H93.542L96.0727 41.8609C95.3893 41.7434 94.8447 41.4658 94.439 41.028C94.0439 40.5795 93.8463 40.0349 93.8463 39.3942C93.8463 38.636 94.1133 38.0274 94.6472 37.5682C95.1918 37.109 95.9019 36.8795 96.7775 36.8795ZM99.036 40.8037V38.0007H96.9537C96.3877 38.0007 95.9499 38.1235 95.6403 38.3691C95.3413 38.6147 95.1918 38.9564 95.1918 39.3942C95.1918 39.8427 95.3413 40.1897 95.6403 40.4353C95.9499 40.6809 96.3824 40.8037 96.9377 40.8037H99.036ZM108.983 33.8682H110.057V44.76H108.647V35.6621L106.341 37.2959L105.636 36.3189L108.983 33.8682ZM115.866 33.8682H116.939V44.76H115.53V35.6621L113.223 37.2959L112.518 36.3189L115.866 33.8682ZM122.208 36.8795V38.6093H120.574V36.8795H122.208ZM122.208 43.0301V44.76H120.574V43.0301H122.208ZM125.538 43.5587H131.88V44.76H124.096V44.2314C124.096 43.4946 124.235 42.8593 124.512 42.3254C124.801 41.7915 125.153 41.359 125.57 41.028C126.082 40.6329 126.68 40.2271 127.364 39.8106L128.164 39.3461C128.72 39.0258 129.131 38.7749 129.398 38.5933C130.081 38.0914 130.423 37.4721 130.423 36.7353C130.423 36.1373 130.225 35.6728 129.83 35.3418C129.435 35.0001 128.928 34.8292 128.309 34.8292C127.689 34.8292 127.15 34.9787 126.691 35.2777C126.221 35.5874 125.708 36.0893 125.153 36.7834L124.112 36.0466C125.233 34.4235 126.621 33.6119 128.277 33.6119C129.344 33.6119 130.204 33.9056 130.855 34.4929C131.517 35.0695 131.848 35.801 131.848 36.6873C131.848 37.3066 131.72 37.8352 131.464 38.273C131.218 38.7001 130.898 39.0578 130.503 39.3461C130.161 39.6131 129.643 39.9495 128.949 40.3552L128.196 40.8037L127.892 40.9799C127.38 41.2896 126.968 41.5565 126.659 41.7808C126.007 42.2613 125.634 42.8539 125.538 43.5587ZM141.175 41.2042C141.175 42.2399 140.812 43.1369 140.086 43.8951C139.359 44.6425 138.43 45.0163 137.299 45.0163C136.53 45.0163 135.841 44.9095 135.232 44.6959C134.698 44.5037 134.015 44.13 133.182 43.5747L133.887 42.5336C134.645 43.0355 135.232 43.3665 135.649 43.5267C136.129 43.7082 136.637 43.799 137.17 43.799C137.929 43.799 138.548 43.5587 139.028 43.0782C139.509 42.587 139.749 41.9837 139.749 41.2682C139.749 40.5528 139.53 39.9815 139.093 39.5544C138.665 39.1272 138.073 38.9137 137.315 38.9137C136.418 38.9137 135.675 39.202 135.088 39.7786L133.855 39.6505L134.335 33.8682H140.662V35.0695H135.537L135.264 38.4492C135.873 37.9686 136.642 37.7284 137.571 37.7284C138.639 37.7284 139.504 38.0541 140.166 38.7054C140.838 39.3568 141.175 40.1897 141.175 41.2042Z" fill="#74757A"/>
<path d="M0 72.0579C0 64.016 6.51929 57.4967 14.5612 57.4967C22.6032 57.4967 29.1225 64.016 29.1225 72.0579C29.1225 80.0999 22.6032 86.6192 14.5612 86.6192C6.51929 86.6192 0 80.0999 0 72.0579Z" fill="#EDC156"/>
<path d="M17.2648 73.6215C17.2648 74.3903 16.9808 75.0674 16.4129 75.6528C15.8451 76.2382 15.0806 76.5308 14.1195 76.5308C13.01 76.5308 11.9091 76.1639 10.8171 75.43L11.4068 74.5782C11.9659 74.9277 12.4421 75.1767 12.8352 75.3252C13.2284 75.465 13.6434 75.5349 14.0802 75.5349C14.6831 75.5349 15.168 75.3601 15.5349 75.0107C15.9106 74.6524 16.0984 74.1938 16.0984 73.6346C16.0984 73.0842 15.9106 72.6561 15.5349 72.3503C15.1592 72.0358 14.635 71.8785 13.9623 71.8785C13.5167 71.8785 13.1629 71.9353 12.9008 72.0489L12.3635 71.315L15.5611 68.3926H11.2626V67.4097H17.0027V68.3664L14.1195 70.9874H14.2899C15.1548 70.9874 15.8669 71.2233 16.426 71.6951C16.9852 72.1668 17.2648 72.809 17.2648 73.6215Z" fill="white"/>
<path d="M51.7797 65.6517H55.0123V78.0579H53.0029V71.8024C53.0029 70.521 53.0262 68.9775 53.0728 67.1719L52.2341 69.7755L51.5701 71.8024L49.4907 78.0579H47.6735L45.5592 71.8024C45.3961 71.2782 45.2214 70.7598 45.035 70.2473L44.0565 67.2768C44.0798 69.9095 44.0914 71.4238 44.0914 71.8199V78.0579H42.1169V65.6517H45.3845L47.1493 70.8938C47.7317 72.5363 48.2152 74.0623 48.5996 75.4718C48.984 74.1206 49.4616 72.5945 50.0324 70.8938L51.7797 65.6517ZM59.4436 75.8213V78.0579H57.2769V75.8213H59.4436ZM74.3507 78.0579L73.3722 75.2622H67.903L66.942 78.0579H64.8451L69.3183 65.6517H72.0267L76.5 78.0579H74.3507ZM68.4971 73.5498H72.7781L72.2539 72.0296L71.852 70.8588C71.2696 69.2163 70.8677 68.0048 70.6463 67.2244C70.3784 68.1097 69.8833 69.5833 69.1611 71.6452L69.0213 72.047L68.4971 73.5498ZM80.0009 75.8213V78.0579H77.8342V75.8213H80.0009ZM96.533 65.6517H99.7656V78.0579H97.7562V71.8024C97.7562 70.521 97.7795 68.9775 97.8261 67.1719L96.9873 69.7755L96.3233 71.8024L94.244 78.0579H92.4268L90.3125 71.8024C90.1494 71.2782 89.9746 70.7598 89.7883 70.2473L88.8097 67.2768C88.833 69.9095 88.8447 71.4238 88.8447 71.8199V78.0579H86.8702V65.6517H90.1377L91.9026 70.8938C92.485 72.5363 92.9684 74.0623 93.3529 75.4718C93.7373 74.1206 94.2149 72.5945 94.7857 70.8938L96.533 65.6517ZM108.076 69.2862H110.033L106.591 79.1413C106.311 79.98 105.956 80.5741 105.525 80.9236C105.094 81.273 104.494 81.4478 103.725 81.4478C103.189 81.4478 102.677 81.3837 102.187 81.2556L102.502 79.8053C102.921 79.8752 103.253 79.9101 103.498 79.9101C103.847 79.9101 104.139 79.8169 104.372 79.6305C104.605 79.4442 104.791 79.1238 104.931 78.6695L104.983 78.5122L101.681 69.2862H103.708L104.564 71.8548C105.158 73.6138 105.606 74.9884 105.909 75.9786C106.399 74.371 106.835 72.9906 107.22 71.8374L108.076 69.2862ZM123.049 80.2421V78.0579H111.726V69.2862H113.648V76.4853H116.741V69.2862H118.646V76.4853H121.721V69.2862H123.643V76.5028H124.919V80.2421H123.049ZM132.708 69.2862H134.805V78.0579H133.005V74.8428C133.005 73.177 133.028 71.9539 133.075 71.1734C132.225 72.6178 131.631 73.6197 131.293 74.1788L128.899 78.0579H126.802V69.2862H128.584V72.6761C128.584 73.9575 128.567 75.1166 128.532 76.1533C129.173 75.0117 129.761 74.0099 130.297 73.1479L132.708 69.2862ZM145.008 78.0579H143.086V74.2836H139.312V78.0579H137.39V69.2862H139.312V72.711H143.086V69.2862H145.008V78.0579ZM153.631 78.0579L150.992 74.2836H149.524V78.0579H147.602V69.2862H149.524V72.711H151.01L153.438 69.2862H155.5L152.53 73.41L155.797 78.0579H153.631ZM163.328 69.2862H165.425V78.0579H163.625V74.8428C163.625 73.177 163.649 71.9539 163.695 71.1734C162.845 72.6178 162.251 73.6197 161.913 74.1788L159.519 78.0579H157.422V69.2862H159.205V72.6761C159.205 73.9575 159.187 75.1166 159.152 76.1533C159.793 75.0117 160.381 74.0099 160.917 73.1479L163.328 69.2862ZM175.629 78.0579H173.706V74.2836H169.932V78.0579H168.01V69.2862H169.932V72.711H173.706V69.2862H175.629V78.0579ZM185.596 72.0645V78.0579H183.866V77.0619C183.284 77.9123 182.317 78.3375 180.966 78.3375C180.022 78.3375 179.259 78.1278 178.677 77.7085C178.106 77.2891 177.821 76.6717 177.821 75.8563C177.821 74.936 178.164 74.2545 178.852 73.8119C179.562 73.3459 180.529 73.0023 181.752 72.7809L183.762 72.414V72.0995C183.762 71.6219 183.599 71.2549 183.272 70.9986C182.946 70.7307 182.504 70.5967 181.944 70.5967C181.409 70.5967 180.937 70.7074 180.529 70.9287C180.133 71.1384 179.667 71.5112 179.131 72.047L177.925 70.9287C178.997 69.6474 180.319 69.0067 181.892 69.0067C183.069 69.0067 183.977 69.2804 184.618 69.8279C185.27 70.3754 185.596 71.1209 185.596 72.0645ZM183.762 74.6156V73.8119L182.241 74.1264C181.321 74.3244 180.669 74.5399 180.284 74.7729C179.9 74.9942 179.708 75.3204 179.708 75.7514C179.708 76.0776 179.842 76.3339 180.11 76.5203C180.389 76.7066 180.768 76.7998 181.245 76.7998C181.979 76.7998 182.579 76.6076 183.045 76.2232C183.523 75.8271 183.762 75.2913 183.762 74.6156Z" fill="#F0BA38"/>
<path d="M200.423 73.6721C200.423 75.035 200.004 76.1533 199.165 77.027C198.338 77.889 197.272 78.32 195.967 78.32C194.651 78.32 193.574 77.889 192.735 77.027C191.908 76.165 191.494 75.0467 191.494 73.6721C191.494 72.2858 191.908 71.1617 192.735 70.2997C193.574 69.4377 194.651 69.0067 195.967 69.0067C197.272 69.0067 198.338 69.4435 199.165 70.3172C200.004 71.1792 200.423 72.2975 200.423 73.6721ZM193.451 73.6721C193.451 74.5807 193.678 75.3146 194.133 75.8737C194.587 76.4212 195.199 76.695 195.967 76.695C196.713 76.695 197.313 76.4212 197.767 75.8737C198.233 75.3146 198.466 74.5807 198.466 73.6721C198.466 72.7518 198.239 72.0179 197.785 71.4704C197.33 70.9113 196.725 70.6317 195.967 70.6317C195.199 70.6317 194.587 70.9113 194.133 71.4704C193.678 72.0179 193.451 72.7518 193.451 73.6721ZM206.016 70.6317C205.236 70.6317 204.63 70.9287 204.199 71.5228C203.78 72.1053 203.57 72.8217 203.57 73.6721C203.57 74.5225 203.78 75.2389 204.199 75.8213C204.63 76.3921 205.236 76.6775 206.016 76.6775C206.459 76.6775 206.861 76.5785 207.222 76.3805C207.595 76.1708 208.02 75.8038 208.498 75.2796L209.773 76.3455C209.202 77.0678 208.626 77.5803 208.043 77.8832C207.461 78.1744 206.779 78.32 205.999 78.32C204.683 78.32 203.623 77.9007 202.819 77.0619C202.015 76.2116 201.613 75.0816 201.613 73.6721C201.613 72.2625 202.021 71.1326 202.836 70.2822C203.652 69.4318 204.712 69.0067 206.016 69.0067C206.75 69.0067 207.397 69.1348 207.956 69.3911C208.515 69.6474 209.074 70.0725 209.633 70.6666L208.41 71.8548C207.944 71.3889 207.531 71.0685 207.17 70.8938C206.82 70.7191 206.436 70.6317 206.016 70.6317ZM218.153 70.8414H215.235V78.0579H213.313V70.8414H210.412V69.2862H218.153V70.8414ZM226.78 72.0645V78.0579H225.05V77.0619C224.468 77.9123 223.501 78.3375 222.149 78.3375C221.206 78.3375 220.443 78.1278 219.86 77.7085C219.29 77.2891 219.004 76.6717 219.004 75.8563C219.004 74.936 219.348 74.2545 220.035 73.8119C220.746 73.3459 221.713 73.0023 222.936 72.7809L224.945 72.414V72.0995C224.945 71.6219 224.782 71.2549 224.456 70.9986C224.13 70.7307 223.687 70.5967 223.128 70.5967C222.592 70.5967 222.12 70.7074 221.713 70.9287C221.316 71.1384 220.85 71.5112 220.315 72.047L219.109 70.9287C220.181 69.6474 221.503 69.0067 223.075 69.0067C224.252 69.0067 225.161 69.2804 225.801 69.8279C226.454 70.3754 226.78 71.1209 226.78 72.0645ZM224.945 74.6156V73.8119L223.425 74.1264C222.505 74.3244 221.852 74.5399 221.468 74.7729C221.083 74.9942 220.891 75.3204 220.891 75.7514C220.891 76.0776 221.025 76.3339 221.293 76.5203C221.573 76.7066 221.951 76.7998 222.429 76.7998C223.163 76.7998 223.763 76.6076 224.229 76.2232C224.706 75.8271 224.945 75.2913 224.945 74.6156ZM236.842 75.6116C236.842 76.3572 236.58 76.9513 236.056 77.3939C235.532 77.8366 234.81 78.0579 233.889 78.0579H228.962V69.2862H233.592C234.501 69.2862 235.229 69.4959 235.776 69.9153C236.336 70.323 236.615 70.888 236.615 71.6102C236.615 72.0645 236.481 72.4664 236.213 72.8159C235.945 73.1537 235.584 73.3983 235.13 73.5498C235.666 73.6896 236.085 73.94 236.388 74.3011C236.691 74.6506 236.842 75.0874 236.842 75.6116ZM230.849 70.7365V72.9382H233.26C234.227 72.9382 234.711 72.5596 234.711 71.8024C234.711 71.0918 234.233 70.7365 233.278 70.7365H230.849ZM233.313 76.5727C234.373 76.5727 234.903 76.1883 234.903 75.4194C234.903 74.6506 234.361 74.2662 233.278 74.2662H230.849V76.5727H233.313ZM244.543 69.2862H246.64V78.0579H244.84V74.8428C244.84 73.177 244.863 71.9539 244.91 71.1734C244.06 72.6178 243.466 73.6197 243.128 74.1788L240.734 78.0579H238.637V69.2862H240.419V72.6761C240.419 73.9575 240.402 75.1166 240.367 76.1533C241.008 75.0117 241.596 74.0099 242.132 73.1479L244.543 69.2862ZM248.054 78.0404L248.229 76.4853C248.543 76.5319 248.765 76.5552 248.893 76.5552C249.405 76.5203 249.726 76.3222 249.854 75.9611C249.982 75.6 250.058 74.7263 250.081 73.3401L250.116 69.2862H256.931V78.0579H255.009V70.8414H251.863L251.828 73.375C251.805 75.2272 251.625 76.4795 251.287 77.1318C250.949 77.7725 250.262 78.1162 249.225 78.1628C248.782 78.1628 248.392 78.122 248.054 78.0404ZM266.522 72.0645V78.0579H264.792V77.0619C264.209 77.9123 263.243 78.3375 261.891 78.3375C260.948 78.3375 260.185 78.1278 259.602 77.7085C259.031 77.2891 258.746 76.6717 258.746 75.8563C258.746 74.936 259.09 74.2545 259.777 73.8119C260.488 73.3459 261.454 73.0023 262.678 72.7809L264.687 72.414V72.0995C264.687 71.6219 264.524 71.2549 264.198 70.9986C263.872 70.7307 263.429 70.5967 262.87 70.5967C262.334 70.5967 261.862 70.7074 261.454 70.9287C261.058 71.1384 260.592 71.5112 260.057 72.047L258.851 70.9287C259.923 69.6474 261.245 69.0067 262.817 69.0067C263.994 69.0067 264.903 69.2804 265.543 69.8279C266.196 70.3754 266.522 71.1209 266.522 72.0645ZM264.687 74.6156V73.8119L263.167 74.1264C262.247 74.3244 261.594 74.5399 261.21 74.7729C260.825 74.9942 260.633 75.3204 260.633 75.7514C260.633 76.0776 260.767 76.3339 261.035 76.5203C261.315 76.7066 261.693 76.7998 262.171 76.7998C262.905 76.7998 263.505 76.6076 263.971 76.2232C264.448 75.8271 264.687 75.2913 264.687 74.6156ZM278.623 78.0579L275.984 74.2836H274.516V78.0579H272.594V69.2862H274.516V72.711H276.002L278.43 69.2862H280.492L277.522 73.41L280.789 78.0579H278.623ZM290.043 73.6721C290.043 75.035 289.624 76.1533 288.785 77.027C287.958 77.889 286.892 78.32 285.587 78.32C284.271 78.32 283.193 77.889 282.355 77.027C281.528 76.165 281.114 75.0467 281.114 73.6721C281.114 72.2858 281.528 71.1617 282.355 70.2997C283.193 69.4377 284.271 69.0067 285.587 69.0067C286.892 69.0067 287.958 69.4435 288.785 70.3172C289.624 71.1792 290.043 72.2975 290.043 73.6721ZM283.071 73.6721C283.071 74.5807 283.298 75.3146 283.753 75.8737C284.207 76.4212 284.818 76.695 285.587 76.695C286.333 76.695 286.933 76.4212 287.387 75.8737C287.853 75.3146 288.086 74.5807 288.086 73.6721C288.086 72.7518 287.859 72.0179 287.404 71.4704C286.95 70.9113 286.344 70.6317 285.587 70.6317C284.818 70.6317 284.207 70.9113 283.753 71.4704C283.298 72.0179 283.071 72.7518 283.071 73.6721ZM299.498 69.2862H302.276V78.0579H300.476V74.406C300.476 73.0896 300.5 71.8315 300.546 70.6317L300.389 71.1035L300.022 72.1694C299.836 72.6936 299.655 73.177 299.48 73.6197L297.855 78.0579H296.143L294.518 73.6197L293.47 70.6492C293.516 71.8723 293.539 73.1246 293.539 74.406V78.0579H291.757V69.2862H294.605L295.968 73.0081C296.376 74.0798 296.731 75.1282 297.034 76.1533C297.465 74.7904 297.82 73.742 298.1 73.0081L299.498 69.2862ZM312.262 69.2862H315.04V78.0579H313.24V74.406C313.24 73.0896 313.264 71.8315 313.31 70.6317L313.153 71.1035L312.786 72.1694C312.6 72.6936 312.419 73.177 312.244 73.6197L310.619 78.0579H308.907L307.282 73.6197L306.233 70.6492C306.28 71.8723 306.303 73.1246 306.303 74.406V78.0579H304.521V69.2862H307.369L308.732 73.0081C309.14 74.0798 309.495 75.1282 309.798 76.1533C310.229 74.7904 310.584 73.742 310.864 73.0081L312.262 69.2862ZM324.012 75.3845L325.13 76.5552C324.513 77.1842 323.896 77.6386 323.278 77.9181C322.672 78.1861 321.997 78.32 321.251 78.32C319.865 78.32 318.77 77.9065 317.966 77.0794C317.163 76.2407 316.761 75.1224 316.761 73.7245C316.761 72.3383 317.151 71.2083 317.931 70.3346C318.723 69.4493 319.772 69.0067 321.077 69.0067C322.358 69.0067 323.348 69.3911 324.047 70.1599C324.758 70.9171 325.113 71.9713 325.113 73.3226C325.113 73.5439 325.101 73.806 325.078 74.1089H318.648C318.718 74.901 318.98 75.5301 319.434 75.9961C319.888 76.462 320.506 76.695 321.286 76.695C321.787 76.695 322.224 76.6018 322.597 76.4154C322.97 76.229 323.441 75.8854 324.012 75.3845ZM318.7 72.711H323.226C323.191 72.0354 322.981 71.5054 322.597 71.1209C322.212 70.7249 321.688 70.5269 321.024 70.5269C320.407 70.5269 319.894 70.7191 319.486 71.1035C319.09 71.4762 318.828 72.0121 318.7 72.711ZM334.493 78.0579H332.571V74.2836H328.797V78.0579H326.875V69.2862H328.797V72.711H332.571V69.2862H334.493V78.0579ZM343.71 70.8414H340.792V78.0579H338.87V70.8414H335.969V69.2862H343.71V70.8414ZM352.336 72.0645V78.0579H350.607V77.0619C350.024 77.9123 349.057 78.3375 347.706 78.3375C346.762 78.3375 345.999 78.1278 345.417 77.7085C344.846 77.2891 344.561 76.6717 344.561 75.8563C344.561 74.936 344.904 74.2545 345.592 73.8119C346.302 73.3459 347.269 73.0023 348.492 72.7809L350.502 72.414V72.0995C350.502 71.6219 350.339 71.2549 350.012 70.9986C349.686 70.7307 349.244 70.5967 348.684 70.5967C348.149 70.5967 347.677 70.7074 347.269 70.9287C346.873 71.1384 346.407 71.5112 345.871 72.047L344.666 70.9287C345.737 69.6474 347.059 69.0067 348.632 69.0067C349.809 69.0067 350.717 69.2804 351.358 69.8279C352.01 70.3754 352.336 71.1209 352.336 72.0645ZM350.502 74.6156V73.8119L348.981 74.1264C348.061 74.3244 347.409 74.5399 347.024 74.7729C346.64 74.9942 346.448 75.3204 346.448 75.7514C346.448 76.0776 346.582 76.3339 346.85 76.5203C347.129 76.7066 347.508 76.7998 347.985 76.7998C348.719 76.7998 349.319 76.6076 349.785 76.2232C350.263 75.8271 350.502 75.2913 350.502 74.6156ZM363.045 73.6546C363.045 75.0408 362.679 76.1591 361.945 77.0095C361.211 77.8599 360.279 78.2851 359.149 78.2851C357.949 78.2851 357.035 77.8715 356.406 77.0445V81.2031H354.483V69.2862H356.266V70.5269C356.906 69.5367 357.873 69.0416 359.166 69.0416C360.296 69.0416 361.222 69.4668 361.945 70.3172C362.679 71.1675 363.045 72.28 363.045 73.6546ZM360.442 75.8213C360.873 75.2738 361.088 74.5516 361.088 73.6546C361.088 72.7576 360.879 72.0412 360.459 71.5054C360.04 70.9579 359.475 70.6841 358.764 70.6841C358.031 70.6841 357.436 70.9579 356.982 71.5054C356.539 72.0412 356.318 72.7576 356.318 73.6546C356.318 74.5632 356.545 75.2855 357 75.8213C357.454 76.3572 358.042 76.6251 358.764 76.6251C359.463 76.6251 360.023 76.3572 360.442 75.8213ZM370.68 69.2862H372.777V78.0579H370.977V74.8428C370.977 73.177 371 71.9539 371.047 71.1734C370.196 72.6178 369.602 73.6197 369.265 74.1788L366.871 78.0579H364.774V69.2862H366.556V72.6761C366.556 73.9575 366.539 75.1166 366.504 76.1533C367.144 75.0117 367.733 74.0099 368.269 73.1479L370.68 69.2862ZM383.015 69.2862V78.0579H381.215V74.8428C381.215 73.177 381.239 71.9539 381.285 71.1734C380.435 72.6178 379.841 73.6197 379.503 74.1788L377.109 78.0579H375.012V69.2862H376.794V72.6761C376.794 73.9691 376.777 75.1282 376.742 76.1533C377.383 75.0117 377.971 74.0099 378.507 73.1479L380.918 69.2862H383.015ZM381.967 65.7915H380.411C380.411 66.6303 379.946 67.0496 379.014 67.0496C378.082 67.0496 377.616 66.6303 377.616 65.7915H376.043C376.043 66.607 376.305 67.2185 376.829 67.6263C377.354 68.034 378.082 68.2378 379.014 68.2378C379.934 68.2378 380.656 68.034 381.18 67.6263C381.705 67.2185 381.967 66.607 381.967 65.7915ZM387.575 69.2862V71.5228H385.408V69.2862H387.575ZM387.575 75.8213V78.0579H385.408V75.8213H387.575ZM393.484 70.0725V67.9408L394.69 65.6517H395.773L394.69 67.9408H395.703V70.0725H393.484ZM396.996 70.0725V67.9408L398.202 65.6517H399.285L398.202 67.9408H399.215V70.0725H396.996ZM411.534 65.6517V78.0579H409.455V72.4489H403.409V78.0579H401.347V65.6517H403.409V70.7016H409.455V65.6517H411.534ZM420.731 75.3845L421.849 76.5552C421.232 77.1842 420.614 77.6386 419.997 77.9181C419.391 78.1861 418.715 78.32 417.97 78.32C416.584 78.32 415.489 77.9065 414.685 77.0794C413.881 76.2407 413.479 75.1224 413.479 73.7245C413.479 72.3383 413.869 71.2083 414.65 70.3346C415.442 69.4493 416.49 69.0067 417.795 69.0067C419.076 69.0067 420.067 69.3911 420.766 70.1599C421.476 70.9171 421.831 71.9713 421.831 73.3226C421.831 73.5439 421.82 73.806 421.796 74.1089H415.366C415.436 74.901 415.698 75.5301 416.153 75.9961C416.607 76.462 417.224 76.695 418.005 76.695C418.506 76.695 418.942 76.6018 419.315 76.4154C419.688 76.229 420.16 75.8854 420.731 75.3845ZM415.419 72.711H419.944C419.909 72.0354 419.7 71.5054 419.315 71.1209C418.931 70.7249 418.407 70.5269 417.743 70.5269C417.125 70.5269 416.613 70.7191 416.205 71.1035C415.809 71.4762 415.547 72.0121 415.419 72.711ZM430.343 70.8414H427.425V78.0579H425.503V70.8414H422.603V69.2862H430.343V70.8414ZM434.889 80.2421V76.5028H435.745C436.444 75.7456 436.799 74.4526 436.811 72.6237L436.846 69.2862H443.573V76.5028H444.831V80.2421H442.979V78.0579H436.741V80.2421H434.889ZM437.737 76.5028H441.651V70.8414H438.593L438.558 72.6936C438.524 74.6156 438.25 75.8854 437.737 76.5028ZM454.505 73.6721C454.505 75.035 454.086 76.1533 453.247 77.027C452.42 77.889 451.354 78.32 450.05 78.32C448.733 78.32 447.656 77.889 446.817 77.027C445.99 76.165 445.576 75.0467 445.576 73.6721C445.576 72.2858 445.99 71.1617 446.817 70.2997C447.656 69.4377 448.733 69.0067 450.05 69.0067C451.354 69.0067 452.42 69.4435 453.247 70.3172C454.086 71.1792 454.505 72.2975 454.505 73.6721ZM447.533 73.6721C447.533 74.5807 447.761 75.3146 448.215 75.8737C448.669 76.4212 449.281 76.695 450.05 76.695C450.795 76.695 451.395 76.4212 451.849 75.8737C452.315 75.3146 452.548 74.5807 452.548 73.6721C452.548 72.7518 452.321 72.0179 451.867 71.4704C451.413 70.9113 450.807 70.6317 450.05 70.6317C449.281 70.6317 448.669 70.9113 448.215 71.4704C447.761 72.0179 447.533 72.7518 447.533 73.6721ZM460.099 70.6317C459.318 70.6317 458.712 70.9287 458.281 71.5228C457.862 72.1053 457.652 72.8217 457.652 73.6721C457.652 74.5225 457.862 75.2389 458.281 75.8213C458.712 76.3921 459.318 76.6775 460.099 76.6775C460.541 76.6775 460.943 76.5785 461.304 76.3805C461.677 76.1708 462.102 75.8038 462.58 75.2796L463.855 76.3455C463.285 77.0678 462.708 77.5803 462.126 77.8832C461.543 78.1744 460.862 78.32 460.081 78.32C458.765 78.32 457.705 77.9007 456.901 77.0619C456.097 76.2116 455.695 75.0816 455.695 73.6721C455.695 72.2625 456.103 71.1326 456.918 70.2822C457.734 69.4318 458.794 69.0067 460.099 69.0067C460.832 69.0067 461.479 69.1348 462.038 69.3911C462.597 69.6474 463.156 70.0725 463.716 70.6666L462.492 71.8548C462.027 71.3889 461.613 71.0685 461.252 70.8938C460.902 70.7191 460.518 70.6317 460.099 70.6317ZM472.235 70.8414H469.317V78.0579H467.395V70.8414H464.495V69.2862H472.235V70.8414ZM479.368 69.2862H481.325L477.883 79.1413C477.603 79.98 477.248 80.5741 476.817 80.9236C476.386 81.273 475.786 81.4478 475.017 81.4478C474.481 81.4478 473.968 81.3837 473.479 81.2556L473.794 79.8053C474.213 79.8752 474.545 79.9101 474.79 79.9101C475.139 79.9101 475.43 79.8169 475.663 79.6305C475.896 79.4442 476.083 79.1238 476.223 78.6695L476.275 78.5122L472.972 69.2862H474.999L475.856 71.8548C476.45 73.6138 476.898 74.9884 477.201 75.9786C477.69 74.371 478.127 72.9906 478.512 71.8374L479.368 69.2862ZM482.669 78.0579V69.2862H490.182V78.0579H488.26V70.8414H484.591V78.0579H482.669ZM499.786 72.0645V78.0579H498.056V77.0619C497.474 77.9123 496.507 78.3375 495.155 78.3375C494.212 78.3375 493.449 78.1278 492.866 77.7085C492.296 77.2891 492.01 76.6717 492.01 75.8563C492.01 74.936 492.354 74.2545 493.041 73.8119C493.752 73.3459 494.719 73.0023 495.942 72.7809L497.951 72.414V72.0995C497.951 71.6219 497.788 71.2549 497.462 70.9986C497.136 70.7307 496.693 70.5967 496.134 70.5967C495.598 70.5967 495.126 70.7074 494.719 70.9287C494.323 71.1384 493.857 71.5112 493.321 72.047L492.115 70.9287C493.187 69.6474 494.509 69.0067 496.082 69.0067C497.258 69.0067 498.167 69.2804 498.807 69.8279C499.46 70.3754 499.786 71.1209 499.786 72.0645ZM497.951 74.6156V73.8119L496.431 74.1264C495.511 74.3244 494.858 74.5399 494.474 74.7729C494.09 74.9942 493.897 75.3204 493.897 75.7514C493.897 76.0776 494.031 76.3339 494.299 76.5203C494.579 76.7066 494.957 76.7998 495.435 76.7998C496.169 76.7998 496.769 76.6076 497.235 76.2232C497.712 75.8271 497.951 75.2913 497.951 74.6156ZM511.887 78.0579L509.248 74.2836H507.781V78.0579H505.859V69.2862H507.781V72.711H509.266L511.695 69.2862H513.757L510.786 73.41L514.054 78.0579H511.887ZM528.323 65.6517V67.4166H524.497V78.0579H522.417V67.4166H518.608V65.6517H528.323ZM539.683 74.4584C539.683 75.6349 539.223 76.5785 538.302 77.2891C537.394 77.988 536.176 78.3375 534.65 78.3375C532.682 78.3375 530.952 77.6502 529.461 76.2756L530.666 74.8603C531.342 75.4544 531.983 75.8854 532.588 76.1533C533.206 76.4096 533.899 76.5377 534.668 76.5377C535.588 76.5377 536.31 76.3513 536.835 75.9786C537.359 75.6058 537.621 75.07 537.621 74.371C537.621 73.7886 537.394 73.3343 536.939 73.0081C536.497 72.6819 535.839 72.5188 534.965 72.5188H532.571V70.8414H534.895C536.468 70.8414 537.254 70.2415 537.254 69.0416C537.254 68.4825 537.021 68.034 536.555 67.6961C536.089 67.3467 535.466 67.1719 534.685 67.1719C533.986 67.1719 533.363 67.2826 532.816 67.5039C532.268 67.7253 531.68 68.1039 531.051 68.6397L529.828 67.2244C530.585 66.572 531.342 66.1002 532.099 65.809C532.856 65.5178 533.707 65.3722 534.65 65.3722C536.083 65.3722 537.213 65.6867 538.04 66.3157C538.867 66.9448 539.281 67.801 539.281 68.8843C539.281 70.1774 538.658 71.0744 537.411 71.5753C538.926 72.0762 539.683 73.0372 539.683 74.4584ZM543.443 65.6517V67.7835L542.238 70.0725H541.154L542.238 67.7835H541.224V65.6517H543.443ZM546.956 65.6517V67.7835L545.75 70.0725H544.667L545.75 67.7835H544.736V65.6517H546.956Z" fill="black"/>
<rect width="0" height="27.6664" transform="translate(14.5613 86.6192)" fill="#449429"/>
<path d="M14.5613 90.9875V109.917" stroke="#449429" stroke-width="0.728062"/>
<path d="M42.8698 100.418H49.2127V101.619H41.4283V101.091C41.4283 100.354 41.5671 99.7185 41.8447 99.1846C42.133 98.6507 42.4854 98.2182 42.9019 97.8872C43.4144 97.4921 44.0124 97.0863 44.6958 96.6698L45.4967 96.2053C46.0519 95.885 46.463 95.634 46.73 95.4525C47.4134 94.9506 47.7551 94.3313 47.7551 93.5945C47.7551 92.9965 47.5576 92.532 47.1625 92.201C46.7674 91.8593 46.2602 91.6884 45.6408 91.6884C45.0215 91.6884 44.4822 91.8379 44.0231 92.1369C43.5532 92.4466 43.0407 92.9485 42.4854 93.6426L41.4443 92.9058C42.5655 91.2827 43.9537 90.4711 45.6088 90.4711C46.6766 90.4711 47.5362 90.7648 48.1876 91.3521C48.8496 91.9287 49.1807 92.6602 49.1807 93.5465C49.1807 94.1658 49.0525 94.6944 48.7962 95.1322C48.5506 95.5593 48.2303 95.917 47.8352 96.2053C47.4935 96.4723 46.9756 96.8087 46.2815 97.2144L45.5287 97.6629L45.2244 97.8391C44.7118 98.1488 44.3007 98.4157 43.991 98.64C43.3397 99.1205 42.9659 99.7131 42.8698 100.418ZM58.3457 98.3196C58.3457 99.2593 57.9987 100.087 57.3046 100.802C56.6105 101.518 55.6762 101.875 54.5016 101.875C53.1454 101.875 51.8 101.427 50.4652 100.53L51.186 99.4889C51.8694 99.916 52.4513 100.22 52.9319 100.402C53.4124 100.573 53.9196 100.658 54.4535 100.658C55.1903 100.658 55.7829 100.445 56.2314 100.017C56.6906 99.5797 56.9202 99.019 56.9202 98.3356C56.9202 97.6629 56.6906 97.1397 56.2314 96.7659C55.7723 96.3815 55.1316 96.1893 54.3093 96.1893C53.7648 96.1893 53.3323 96.2587 53.0119 96.3975L52.3552 95.5006L56.2635 91.9287H51.0098V90.7274H58.0254V91.8967L54.5016 95.1001H54.7098C55.7669 95.1001 56.6372 95.3884 57.3206 95.9651C58.004 96.5417 58.3457 97.3265 58.3457 98.3196ZM69.3298 93.7387H70.8194V101.619H69.522V98.3837C69.522 97.0809 69.538 95.9918 69.57 95.1162C68.908 96.216 68.2993 97.1877 67.744 98.0313L65.4055 101.619H63.9319V93.7387H65.2293V97.2304C65.2293 98.2662 65.2133 99.2486 65.1813 100.178C66.0142 98.8322 66.6175 97.8818 66.9912 97.3265L69.3298 93.7387ZM82.6139 94.6837C83.34 95.4525 83.7031 96.4509 83.7031 97.6789C83.7031 98.9069 83.34 99.9107 82.6139 100.69C81.8878 101.459 80.9534 101.843 79.8109 101.843C78.7324 101.843 77.8354 101.496 77.1199 100.802C76.4045 100.098 76.0041 99.1899 75.9186 98.0794H74.381V101.619H73.0035V93.7387H74.381V97.0543H75.9347C76.0628 95.9864 76.4793 95.1322 77.184 94.4915C77.8781 93.8401 78.7537 93.5144 79.8109 93.5144C80.9534 93.5144 81.8878 93.9042 82.6139 94.6837ZM81.6208 99.8733C82.0693 99.318 82.2936 98.5866 82.2936 97.6789C82.2936 96.7713 82.0693 96.0452 81.6208 95.5006C81.1723 94.9453 80.569 94.6677 79.8109 94.6677C79.0527 94.6677 78.444 94.9453 77.9849 95.5006C77.5364 96.0558 77.3122 96.782 77.3122 97.6789C77.3122 98.5759 77.5364 99.302 77.9849 99.8573C78.444 100.413 79.0527 100.69 79.8109 100.69C80.569 100.69 81.1723 100.418 81.6208 99.8733ZM91.9914 101.619H90.6139V98.1114H86.7858V101.619H85.4083V93.7387H86.7858V96.9742H90.6139V93.7387H91.9914V101.619ZM96.7775 93.7387H100.349V101.619H99.036V98.7841H97.5624L95.1437 101.619H93.542L96.0727 98.7201C95.3893 98.6026 94.8447 98.325 94.439 97.8872C94.0439 97.4387 93.8463 96.8941 93.8463 96.2534C93.8463 95.4952 94.1133 94.8866 94.6472 94.4274C95.1918 93.9682 95.9019 93.7387 96.7775 93.7387ZM99.036 97.6629V94.8599H96.9537C96.3877 94.8599 95.9499 94.9827 95.6403 95.2283C95.3413 95.4739 95.1918 95.8156 95.1918 96.2534C95.1918 96.7019 95.3413 97.0489 95.6403 97.2945C95.9499 97.5401 96.3824 97.6629 96.9377 97.6629H99.036ZM108.983 90.7274H110.057V101.619H108.647V92.5213L106.341 94.1551L105.636 93.1781L108.983 90.7274ZM114.526 100.418H120.868V101.619H113.084V101.091C113.084 100.354 113.223 99.7185 113.501 99.1846C113.789 98.6507 114.141 98.2182 114.558 97.8872C115.07 97.4921 115.668 97.0863 116.352 96.6698L117.152 96.2053C117.708 95.885 118.119 95.634 118.386 95.4525C119.069 94.9506 119.411 94.3313 119.411 93.5945C119.411 92.9965 119.213 92.532 118.818 92.201C118.423 91.8593 117.916 91.6884 117.297 91.6884C116.677 91.6884 116.138 91.8379 115.679 92.1369C115.209 92.4466 114.696 92.9485 114.141 93.6426L113.1 92.9058C114.221 91.2827 115.609 90.4711 117.265 90.4711C118.332 90.4711 119.192 90.7648 119.843 91.3521C120.505 91.9287 120.836 92.6602 120.836 93.5465C120.836 94.1658 120.708 94.6944 120.452 95.1322C120.206 95.5593 119.886 95.917 119.491 96.2053C119.149 96.4723 118.631 96.8087 117.937 97.2144L117.185 97.6629L116.88 97.8391C116.368 98.1488 115.957 98.4157 115.647 98.64C114.995 99.1205 114.622 99.7131 114.526 100.418ZM124.461 93.7387V95.4685H122.827V93.7387H124.461ZM124.461 99.8893V101.619H122.827V99.8893H124.461ZM134.053 98.3196C134.053 99.2593 133.706 100.087 133.012 100.802C132.318 101.518 131.383 101.875 130.209 101.875C128.852 101.875 127.507 101.427 126.172 100.53L126.893 99.4889C127.576 99.916 128.158 100.22 128.639 100.402C129.119 100.573 129.627 100.658 130.161 100.658C130.897 100.658 131.49 100.445 131.938 100.017C132.398 99.5797 132.627 99.019 132.627 98.3356C132.627 97.6629 132.398 97.1397 131.938 96.7659C131.479 96.3815 130.839 96.1893 130.016 96.1893C129.472 96.1893 129.039 96.2587 128.719 96.3975L128.062 95.5006L131.971 91.9287H126.717V90.7274H133.732V91.8967L130.209 95.1001H130.417C131.474 95.1001 132.344 95.3884 133.028 95.9651C133.711 96.5417 134.053 97.3265 134.053 98.3196ZM142.445 97.9032H144.079V99.0724H142.445V101.619H141.067V99.0724H135.541V97.7911L140.058 90.7274H141.628L137.047 97.9032H141.067V95.4205H142.445V97.9032Z" fill="#74757A"/>
<path d="M0 132.003C0 122.257 7.90064 114.356 17.6466 114.356C27.3925 114.356 35.2931 122.257 35.2931 132.003C35.2931 141.748 27.3925 149.649 17.6466 149.649C7.90064 149.649 0 141.748 0 132.003Z" fill="#C3E7B8"/>
<path d="M25.5255 125.661H24.1488C23.9558 125.661 23.7726 125.749 23.6545 125.901L15.5343 136.188L11.6406 131.254C11.5817 131.179 11.5066 131.119 11.421 131.077C11.3354 131.036 11.2415 131.014 11.1463 131.014H9.7696C9.63765 131.014 9.56478 131.166 9.64552 131.268L15.0399 138.102C15.292 138.421 15.7765 138.421 16.0306 138.102L25.6495 125.913C25.7303 125.812 25.6574 125.661 25.5255 125.661Z" fill="#449429"/>
<path d="M61.5018 125.217C62.4053 126.036 62.8571 127.165 62.8571 128.605C62.8571 130.045 62.4053 131.174 61.5018 131.993C60.6265 132.812 59.4336 133.221 57.9231 133.221H53.5397V139.003H51.0409V123.968H57.9231C59.4054 123.968 60.5983 124.384 61.5018 125.217ZM57.5207 126.043H53.5397V131.146H57.5207C58.4101 131.146 59.1019 130.927 59.596 130.49C60.1042 130.038 60.3583 129.41 60.3583 128.605C60.3583 127.786 60.1042 127.158 59.596 126.72C59.1019 126.269 58.4101 126.043 57.5207 126.043ZM73.6399 131.739V139.003H71.5435V137.795C70.8376 138.826 69.6659 139.341 68.0283 139.341C66.8848 139.341 65.9601 139.087 65.2542 138.579C64.5625 138.071 64.2166 137.323 64.2166 136.334C64.2166 135.219 64.6331 134.393 65.466 133.857C66.3271 133.292 67.4989 132.876 68.9812 132.607L71.4164 132.163V131.782C71.4164 131.203 71.2188 130.758 70.8235 130.447C70.4282 130.123 69.8917 129.96 69.2141 129.96C68.5647 129.96 67.993 130.095 67.4989 130.363C67.0189 130.617 66.4542 131.069 65.8048 131.718L64.3437 130.363C65.6425 128.81 67.2448 128.033 69.1506 128.033C70.5764 128.033 71.6776 128.365 72.454 129.029C73.2446 129.692 73.6399 130.596 73.6399 131.739ZM71.4164 134.831V133.857L69.5741 134.238C68.4588 134.478 67.6683 134.739 67.2024 135.021C66.7365 135.29 66.5036 135.685 66.5036 136.207C66.5036 136.603 66.666 136.913 66.9906 137.139C67.3295 137.365 67.7883 137.478 68.3671 137.478C69.2565 137.478 69.9835 137.245 70.5482 136.779C71.127 136.299 71.4164 135.65 71.4164 134.831ZM85.2598 130.066C86.1068 130.984 86.5304 132.247 86.5304 133.857C86.5304 135.466 86.0292 136.779 85.0269 137.795C84.0387 138.798 82.7822 139.299 81.2576 139.299C79.5353 139.299 78.2012 138.713 77.2553 137.541C76.3095 136.37 75.8365 134.69 75.8365 132.502C75.8365 129.749 76.3024 127.709 77.2341 126.382C78.18 125.041 79.8317 124.264 82.1893 124.052L85.7257 123.735L85.9163 125.937L82.4011 126.233C80.8058 126.361 79.6764 126.756 79.0129 127.419C78.3635 128.069 77.9753 129.226 77.8482 130.892C78.1871 130.215 78.7023 129.678 79.3941 129.283C80.0999 128.873 80.8976 128.669 81.787 128.669C83.2693 128.669 84.4269 129.135 85.2598 130.066ZM84.1587 133.899C84.1587 132.897 83.8975 132.099 83.3752 131.506C82.8669 130.913 82.1611 130.617 81.2576 130.617C80.3682 130.617 79.6341 130.92 79.0553 131.527C78.4906 132.134 78.2082 132.925 78.2082 133.899C78.2082 134.958 78.4765 135.798 79.0129 136.419C79.5635 137.026 80.2976 137.33 81.2152 137.33C82.1187 137.33 82.8316 137.026 83.354 136.419C83.8904 135.798 84.1587 134.958 84.1587 133.899ZM98.7742 133.687C98.7742 135.339 98.2659 136.694 97.2495 137.753C96.2472 138.798 94.9554 139.32 93.3743 139.32C91.7791 139.32 90.4732 138.798 89.4568 137.753C88.4544 136.708 87.9533 135.353 87.9533 133.687C87.9533 132.007 88.4544 130.645 89.4568 129.6C90.4732 128.556 91.7791 128.033 93.3743 128.033C94.9554 128.033 96.2472 128.563 97.2495 129.622C98.2659 130.666 98.7742 132.022 98.7742 133.687ZM90.325 133.687C90.325 134.789 90.6003 135.678 91.1508 136.356C91.7014 137.019 92.4426 137.351 93.3743 137.351C94.2778 137.351 95.0048 137.019 95.5554 136.356C96.1201 135.678 96.4025 134.789 96.4025 133.687C96.4025 132.572 96.1272 131.683 95.5766 131.019C95.026 130.342 94.2919 130.003 93.3743 130.003C92.4426 130.003 91.7014 130.342 91.1508 131.019C90.6003 131.683 90.325 132.572 90.325 133.687ZM108.908 130.257H105.371V139.003H103.042V130.257H99.5269V128.372H108.908V130.257ZM119.362 131.739V139.003H117.266V137.795C116.56 138.826 115.388 139.341 113.751 139.341C112.607 139.341 111.683 139.087 110.977 138.579C110.285 138.071 109.939 137.323 109.939 136.334C109.939 135.219 110.356 134.393 111.189 133.857C112.05 133.292 113.221 132.876 114.704 132.607L117.139 132.163V131.782C117.139 131.203 116.941 130.758 116.546 130.447C116.151 130.123 115.614 129.96 114.937 129.96C114.287 129.96 113.715 130.095 113.221 130.363C112.741 130.617 112.177 131.069 111.527 131.718L110.066 130.363C111.365 128.81 112.967 128.033 114.873 128.033C116.299 128.033 117.4 128.365 118.177 129.029C118.967 129.692 119.362 130.596 119.362 131.739ZM117.139 134.831V133.857L115.297 134.238C114.181 134.478 113.391 134.739 112.925 135.021C112.459 135.29 112.226 135.685 112.226 136.207C112.226 136.603 112.388 136.913 112.713 137.139C113.052 137.365 113.511 137.478 114.09 137.478C114.979 137.478 115.706 137.245 116.271 136.779C116.85 136.299 117.139 135.65 117.139 134.831ZM135.954 139.003H133.625V134.429H129.051V139.003H126.722V128.372H129.051V132.523H133.625V128.372H135.954V139.003ZM147.611 131.739V139.003H145.514V137.795C144.808 138.826 143.637 139.341 141.999 139.341C140.856 139.341 139.931 139.087 139.225 138.579C138.533 138.071 138.187 137.323 138.187 136.334C138.187 135.219 138.604 134.393 139.437 133.857C140.298 133.292 141.47 132.876 142.952 132.607L145.387 132.163V131.782C145.387 131.203 145.19 130.758 144.794 130.447C144.399 130.123 143.863 129.96 143.185 129.96C142.536 129.96 141.964 130.095 141.47 130.363C140.99 130.617 140.425 131.069 139.776 131.718L138.314 130.363C139.613 128.81 141.216 128.033 143.121 128.033C144.547 128.033 145.648 128.365 146.425 129.029C147.215 129.692 147.611 130.596 147.611 131.739ZM145.387 134.831V133.857L143.545 134.238C142.43 134.478 141.639 134.739 141.173 135.021C140.707 135.29 140.474 135.685 140.474 136.207C140.474 136.603 140.637 136.913 140.961 137.139C141.3 137.365 141.759 137.478 142.338 137.478C143.227 137.478 143.954 137.245 144.519 136.779C145.098 136.299 145.387 135.65 145.387 134.831ZM149.158 141.649V137.118H150.196C151.043 136.2 151.474 134.633 151.488 132.417L151.53 128.372H159.683V137.118H161.207V141.649H158.963V139.003H151.403V141.649H149.158ZM152.61 137.118H157.353V130.257H153.648L153.605 132.502C153.563 134.831 153.231 136.37 152.61 137.118ZM176.452 135.932C176.452 136.948 176.028 137.781 175.181 138.431C174.334 139.066 173.184 139.384 171.73 139.384C169.908 139.384 168.257 138.748 166.774 137.478L168.066 135.974C169.28 136.948 170.508 137.435 171.751 137.435C172.513 137.435 173.099 137.294 173.508 137.012C173.932 136.73 174.144 136.334 174.144 135.826C174.144 135.346 173.96 135 173.593 134.789C173.226 134.577 172.647 134.471 171.857 134.471H169.993V132.713H171.984C173.254 132.713 173.889 132.254 173.889 131.337C173.889 130.899 173.706 130.546 173.339 130.278C172.972 130.01 172.442 129.876 171.751 129.876C170.607 129.876 169.45 130.327 168.278 131.231L167.156 129.706C168.652 128.577 170.219 128.012 171.857 128.012C173.014 128.012 174.024 128.28 174.885 128.817C175.76 129.353 176.198 130.109 176.198 131.083C176.198 132.24 175.598 133.045 174.398 133.497C175.767 133.934 176.452 134.746 176.452 135.932ZM187.543 131.739V139.003H185.447V137.795C184.741 138.826 183.569 139.341 181.931 139.341C180.788 139.341 179.863 139.087 179.157 138.579C178.466 138.071 178.12 137.323 178.12 136.334C178.12 135.219 178.536 134.393 179.369 133.857C180.23 133.292 181.402 132.876 182.884 132.607L185.319 132.163V131.782C185.319 131.203 185.122 130.758 184.727 130.447C184.331 130.123 183.795 129.96 183.117 129.96C182.468 129.96 181.896 130.095 181.402 130.363C180.922 130.617 180.357 131.069 179.708 131.718L178.247 130.363C179.546 128.81 181.148 128.033 183.054 128.033C184.479 128.033 185.581 128.365 186.357 129.029C187.148 129.692 187.543 130.596 187.543 131.739ZM185.319 134.831V133.857L183.477 134.238C182.362 134.478 181.571 134.739 181.105 135.021C180.64 135.29 180.407 135.685 180.407 136.207C180.407 136.603 180.569 136.913 180.894 137.139C181.233 137.365 181.691 137.478 182.27 137.478C183.16 137.478 183.887 137.245 184.451 136.779C185.03 136.299 185.319 135.65 185.319 134.831ZM193.766 128.372H198.954V139.003H196.731V135.403H194.909L191.987 139.003H189.319L192.474 135.254C191.627 135.043 190.957 134.64 190.463 134.047C189.983 133.44 189.743 132.713 189.743 131.866C189.743 130.807 190.11 129.96 190.844 129.325C191.578 128.69 192.552 128.372 193.766 128.372ZM196.731 133.539V130.236H194.041C193.406 130.236 192.919 130.384 192.58 130.68C192.241 130.963 192.072 131.358 192.072 131.866C192.072 132.389 192.241 132.798 192.58 133.094C192.933 133.391 193.42 133.539 194.041 133.539H196.731ZM211.215 136.038C211.215 136.941 210.897 137.661 210.262 138.198C209.627 138.734 208.751 139.003 207.636 139.003H201.664V128.372H207.276C208.377 128.372 209.26 128.626 209.923 129.135C210.601 129.629 210.939 130.313 210.939 131.189C210.939 131.739 210.777 132.226 210.452 132.65C210.128 133.059 209.69 133.356 209.14 133.539C209.789 133.709 210.297 134.012 210.664 134.45C211.031 134.873 211.215 135.403 211.215 136.038ZM203.951 130.13V132.798H206.874C208.045 132.798 208.631 132.339 208.631 131.422C208.631 130.56 208.052 130.13 206.895 130.13H203.951ZM206.937 137.203C208.222 137.203 208.864 136.737 208.864 135.805C208.864 134.873 208.208 134.407 206.895 134.407H203.951V137.203H206.937ZM220.695 139.003L217.498 134.429H215.719V139.003H213.39V128.372H215.719V132.523H217.519L220.462 128.372H222.961L219.361 133.37L223.321 139.003H220.695ZM234.536 133.687C234.536 135.339 234.027 136.694 233.011 137.753C232.009 138.798 230.717 139.32 229.136 139.32C227.54 139.32 226.235 138.798 225.218 137.753C224.216 136.708 223.715 135.353 223.715 133.687C223.715 132.007 224.216 130.645 225.218 129.6C226.235 128.556 227.54 128.033 229.136 128.033C230.717 128.033 232.009 128.563 233.011 129.622C234.027 130.666 234.536 132.022 234.536 133.687ZM226.086 133.687C226.086 134.789 226.362 135.678 226.912 136.356C227.463 137.019 228.204 137.351 229.136 137.351C230.039 137.351 230.766 137.019 231.317 136.356C231.881 135.678 232.164 134.789 232.164 133.687C232.164 132.572 231.889 131.683 231.338 131.019C230.787 130.342 230.053 130.003 229.136 130.003C228.204 130.003 227.463 130.342 226.912 131.019C226.362 131.683 226.086 132.572 226.086 133.687ZM246.311 128.372V139.003H244.13V135.106C244.13 133.087 244.159 131.605 244.215 130.659C243.184 132.41 242.465 133.624 242.055 134.301L239.154 139.003H236.613V128.372H238.773V132.48C238.773 134.047 238.752 135.452 238.709 136.694C239.486 135.311 240.199 134.097 240.848 133.052L243.77 128.372H246.311ZM245.041 124.137H243.156C243.156 125.153 242.592 125.662 241.462 125.662C240.333 125.662 239.768 125.153 239.768 124.137H237.862C237.862 125.125 238.18 125.866 238.815 126.361C239.45 126.855 240.333 127.102 241.462 127.102C242.577 127.102 243.453 126.855 244.088 126.361C244.723 125.866 245.041 125.125 245.041 124.137ZM262.375 135.932C262.375 136.948 261.952 137.781 261.105 138.431C260.258 139.066 259.107 139.384 257.653 139.384C255.832 139.384 254.18 138.748 252.698 137.478L253.99 135.974C255.204 136.948 256.432 137.435 257.674 137.435C258.437 137.435 259.022 137.294 259.432 137.012C259.855 136.73 260.067 136.334 260.067 135.826C260.067 135.346 259.884 135 259.517 134.789C259.15 134.577 258.571 134.471 257.78 134.471H255.917V132.713H257.907C259.178 132.713 259.813 132.254 259.813 131.337C259.813 130.899 259.63 130.546 259.262 130.278C258.895 130.01 258.366 129.876 257.674 129.876C256.531 129.876 255.373 130.327 254.201 131.231L253.079 129.706C254.576 128.577 256.143 128.012 257.78 128.012C258.938 128.012 259.947 128.28 260.808 128.817C261.684 129.353 262.121 130.109 262.121 131.083C262.121 132.24 261.521 133.045 260.321 133.497C261.691 133.934 262.375 134.746 262.375 135.932ZM273.467 131.739V139.003H271.37V137.795C270.664 138.826 269.493 139.341 267.855 139.341C266.711 139.341 265.787 139.087 265.081 138.579C264.389 138.071 264.043 137.323 264.043 136.334C264.043 135.219 264.46 134.393 265.293 133.857C266.154 133.292 267.326 132.876 268.808 132.607L271.243 132.163V131.782C271.243 131.203 271.045 130.758 270.65 130.447C270.255 130.123 269.718 129.96 269.041 129.96C268.391 129.96 267.82 130.095 267.326 130.363C266.846 130.617 266.281 131.069 265.631 131.718L264.17 130.363C265.469 128.81 267.071 128.033 268.977 128.033C270.403 128.033 271.504 128.365 272.281 129.029C273.071 129.692 273.467 130.596 273.467 131.739ZM271.243 134.831V133.857L269.401 134.238C268.285 134.478 267.495 134.739 267.029 135.021C266.563 135.29 266.33 135.685 266.33 136.207C266.33 136.603 266.493 136.913 266.817 137.139C267.156 137.365 267.615 137.478 268.194 137.478C269.083 137.478 269.81 137.245 270.375 136.779C270.954 136.299 271.243 135.65 271.243 134.831ZM285.661 136.038C285.661 136.941 285.344 137.661 284.708 138.198C284.073 138.734 283.198 139.003 282.082 139.003H276.111V128.372H281.722C282.824 128.372 283.706 128.626 284.369 129.135C285.047 129.629 285.386 130.313 285.386 131.189C285.386 131.739 285.224 132.226 284.899 132.65C284.574 133.059 284.137 133.356 283.586 133.539C284.235 133.709 284.744 134.012 285.111 134.45C285.478 134.873 285.661 135.403 285.661 136.038ZM278.398 130.13V132.798H281.32C282.492 132.798 283.078 132.339 283.078 131.422C283.078 130.56 282.499 130.13 281.341 130.13H278.398ZM281.384 137.203C282.668 137.203 283.311 136.737 283.311 135.805C283.311 134.873 282.654 134.407 281.341 134.407H278.398V137.203H281.384ZM295.989 135.763L297.344 137.181C296.596 137.944 295.848 138.494 295.1 138.833C294.365 139.158 293.547 139.32 292.643 139.32C290.963 139.32 289.636 138.819 288.662 137.817C287.688 136.8 287.201 135.445 287.201 133.751C287.201 132.071 287.674 130.702 288.62 129.643C289.58 128.57 290.85 128.033 292.431 128.033C293.984 128.033 295.184 128.499 296.031 129.431C296.892 130.349 297.323 131.626 297.323 133.264C297.323 133.532 297.309 133.85 297.281 134.217H289.488C289.573 135.177 289.89 135.939 290.441 136.504C290.991 137.068 291.74 137.351 292.685 137.351C293.293 137.351 293.822 137.238 294.274 137.012C294.725 136.786 295.297 136.37 295.989 135.763ZM289.551 132.523H295.036C294.994 131.704 294.74 131.062 294.274 130.596C293.808 130.116 293.173 129.876 292.368 129.876C291.62 129.876 290.998 130.109 290.504 130.575C290.024 131.026 289.707 131.676 289.551 132.523ZM309.792 133.666C309.792 135.346 309.347 136.701 308.458 137.732C307.568 138.763 306.439 139.278 305.07 139.278C303.616 139.278 302.507 138.777 301.745 137.774V142.814H299.416V128.372H301.576V129.876C302.352 128.676 303.524 128.076 305.091 128.076C306.46 128.076 307.583 128.591 308.458 129.622C309.347 130.652 309.792 132 309.792 133.666ZM306.637 136.292C307.159 135.628 307.42 134.753 307.42 133.666C307.42 132.579 307.166 131.711 306.658 131.062C306.15 130.398 305.465 130.066 304.604 130.066C303.714 130.066 302.994 130.398 302.444 131.062C301.907 131.711 301.639 132.579 301.639 133.666C301.639 134.767 301.915 135.643 302.465 136.292C303.016 136.941 303.729 137.266 304.604 137.266C305.451 137.266 306.129 136.941 306.637 136.292ZM326.328 128.372V139.003H311.887V128.372H314.216V137.097H317.943V128.372H320.272V137.097H323.999V128.372H326.328ZM337.183 135.763L338.538 137.181C337.79 137.944 337.041 138.494 336.293 138.833C335.559 139.158 334.74 139.32 333.837 139.32C332.157 139.32 330.83 138.819 329.856 137.817C328.882 136.8 328.395 135.445 328.395 133.751C328.395 132.071 328.868 130.702 329.813 129.643C330.773 128.57 332.044 128.033 333.625 128.033C335.178 128.033 336.378 128.499 337.225 129.431C338.086 130.349 338.517 131.626 338.517 133.264C338.517 133.532 338.503 133.85 338.474 134.217H330.682C330.766 135.177 331.084 135.939 331.635 136.504C332.185 137.068 332.933 137.351 333.879 137.351C334.486 137.351 335.016 137.238 335.467 137.012C335.919 136.786 336.491 136.37 337.183 135.763ZM330.745 132.523H336.23C336.187 131.704 335.933 131.062 335.467 130.596C335.001 130.116 334.366 129.876 333.562 129.876C332.813 129.876 332.192 130.109 331.698 130.575C331.218 131.026 330.9 131.676 330.745 132.523ZM349.884 139.003H347.555V134.429H342.981V139.003H340.652V128.372H342.981V132.523H347.555V128.372H349.884V139.003ZM361.541 131.739V139.003H359.444V137.795C358.739 138.826 357.567 139.341 355.929 139.341C354.786 139.341 353.861 139.087 353.155 138.579C352.463 138.071 352.118 137.323 352.118 136.334C352.118 135.219 352.534 134.393 353.367 133.857C354.228 133.292 355.4 132.876 356.882 132.607L359.317 132.163V131.782C359.317 131.203 359.12 130.758 358.724 130.447C358.329 130.123 357.793 129.96 357.115 129.96C356.466 129.96 355.894 130.095 355.4 130.363C354.92 130.617 354.355 131.069 353.706 131.718L352.245 130.363C353.543 128.81 355.146 128.033 357.052 128.033C358.477 128.033 359.579 128.365 360.355 129.029C361.146 129.692 361.541 130.596 361.541 131.739ZM359.317 134.831V133.857L357.475 134.238C356.36 134.478 355.569 134.739 355.103 135.021C354.637 135.29 354.405 135.685 354.405 136.207C354.405 136.603 354.567 136.913 354.892 137.139C355.23 137.365 355.689 137.478 356.268 137.478C357.157 137.478 357.884 137.245 358.449 136.779C359.028 136.299 359.317 135.65 359.317 134.831Z" fill="#449429"/>
<path d="M51.071 166.193H58.7578V167.649H49.324V167.009C49.324 166.116 49.4922 165.346 49.8287 164.699C50.1781 164.052 50.6051 163.527 51.1098 163.126C51.731 162.647 52.4556 162.156 53.2839 161.651L54.2544 161.088C54.9273 160.7 55.4256 160.396 55.7491 160.176C56.5773 159.568 56.9914 158.817 56.9914 157.924C56.9914 157.199 56.752 156.636 56.2732 156.235C55.7944 155.821 55.1797 155.614 54.4291 155.614C53.6786 155.614 53.025 155.795 52.4686 156.158C51.8992 156.533 51.278 157.141 50.6051 157.982L49.3434 157.089C50.7022 155.122 52.3845 154.139 54.3903 154.139C55.6844 154.139 56.7261 154.495 57.5155 155.207C58.3178 155.905 58.719 156.792 58.719 157.866C58.719 158.616 58.5637 159.257 58.2531 159.788C57.9555 160.305 57.5673 160.739 57.0885 161.088C56.6743 161.412 56.0467 161.819 55.2056 162.311L54.2932 162.855L53.9244 163.068C53.3033 163.443 52.805 163.767 52.4298 164.039C51.6404 164.621 51.1874 165.339 51.071 166.193ZM70.0215 163.34C70.0215 164.595 69.5815 165.682 68.7015 166.601C67.8215 167.507 66.6957 167.96 65.324 167.96C64.3922 167.96 63.5575 167.83 62.8199 167.571C62.1729 167.339 61.3447 166.886 60.3353 166.213L61.1894 164.951C62.1082 165.559 62.8199 165.96 63.3246 166.154C63.907 166.374 64.5216 166.484 65.1687 166.484C66.0875 166.484 66.838 166.193 67.4204 165.611C68.0027 165.016 68.2939 164.284 68.2939 163.417C68.2939 162.55 68.0286 161.858 67.498 161.34C66.9804 160.823 66.2622 160.564 65.3434 160.564C64.2564 160.564 63.357 160.913 62.6452 161.612L61.1506 161.457L61.7329 154.449H69.4003V155.905H63.1887L62.8587 160.001C63.5964 159.419 64.5281 159.128 65.654 159.128C66.948 159.128 67.9962 159.522 68.7986 160.312C69.6138 161.101 70.0215 162.11 70.0215 163.34ZM83.308 158.099H85.1133V167.649H83.5409V163.728C83.5409 162.149 83.5604 160.829 83.5992 159.768C82.7968 161.101 82.0592 162.279 81.3863 163.301L78.5523 167.649H76.7664V158.099H78.3387V162.33C78.3387 163.586 78.3193 164.776 78.2805 165.902C79.2899 164.272 80.021 163.12 80.474 162.447L83.308 158.099ZM99.4069 159.244C100.287 160.176 100.727 161.386 100.727 162.874C100.727 164.362 100.287 165.579 99.4069 166.523C98.5269 167.455 97.3946 167.921 96.0099 167.921C94.7029 167.921 93.6159 167.5 92.7488 166.659C91.8818 165.805 91.3965 164.705 91.293 163.359H89.4295V167.649H87.7602V158.099H89.4295V162.117H91.3124C91.4677 160.823 91.9724 159.788 92.8265 159.011C93.6676 158.222 94.7288 157.827 96.0099 157.827C97.3946 157.827 98.5269 158.299 99.4069 159.244ZM98.2034 165.533C98.7469 164.86 99.0187 163.974 99.0187 162.874C99.0187 161.774 98.7469 160.894 98.2034 160.234C97.6599 159.561 96.9287 159.225 96.0099 159.225C95.0911 159.225 94.3535 159.561 93.797 160.234C93.2535 160.907 92.9818 161.787 92.9818 162.874C92.9818 163.961 93.2535 164.841 93.797 165.514C94.3535 166.187 95.0911 166.523 96.0099 166.523C96.9287 166.523 97.6599 166.193 98.2034 165.533ZM110.771 167.649H109.102V163.398H104.463V167.649H102.793V158.099H104.463V162.02H109.102V158.099H110.771V167.649ZM116.572 158.099H120.9V167.649H119.309V164.213H117.523L114.592 167.649H112.65L115.717 164.136C114.889 163.993 114.229 163.657 113.738 163.126C113.259 162.583 113.019 161.923 113.019 161.146C113.019 160.228 113.343 159.49 113.99 158.933C114.65 158.377 115.51 158.099 116.572 158.099ZM119.309 162.855V159.458H116.785C116.099 159.458 115.569 159.606 115.193 159.904C114.831 160.202 114.65 160.616 114.65 161.146C114.65 161.69 114.831 162.11 115.193 162.408C115.569 162.706 116.093 162.855 116.766 162.855H119.309ZM131.364 154.449H132.664V167.649H130.956V156.624L128.161 158.603L127.307 157.419L131.364 154.449ZM144.914 160.292C145.73 161.146 146.137 162.195 146.137 163.437C146.137 164.679 145.697 165.74 144.817 166.62C143.95 167.5 142.799 167.94 141.362 167.94C139.861 167.94 138.67 167.461 137.79 166.504C136.923 165.546 136.49 164.31 136.49 162.796C136.49 161.45 136.826 160.189 137.499 159.011C138.172 157.834 139.188 156.611 140.547 155.342L141.498 154.449H143.789V154.469L141.692 156.391C140.243 157.711 139.227 158.979 138.645 160.195C139.395 159.406 140.424 159.011 141.731 159.011C143.038 159.011 144.099 159.438 144.914 160.292ZM144.41 163.456C144.41 162.576 144.138 161.858 143.594 161.302C143.064 160.732 142.346 160.448 141.44 160.448C140.482 160.448 139.712 160.732 139.13 161.302C138.547 161.858 138.256 162.576 138.256 163.456C138.256 164.31 138.541 165.035 139.11 165.63C139.68 166.2 140.43 166.484 141.362 166.484C142.281 166.484 143.019 166.206 143.575 165.65C144.131 165.08 144.41 164.349 144.41 163.456ZM150.386 158.099V160.195H148.406V158.099H150.386ZM150.386 165.553V167.649H148.406V165.553H150.386ZM161.622 156.585C162.243 157.788 162.554 159.276 162.554 161.049C162.554 162.822 162.243 164.31 161.622 165.514C160.781 167.144 159.442 167.96 157.604 167.96C155.766 167.96 154.427 167.144 153.586 165.514C152.965 164.31 152.654 162.822 152.654 161.049C152.654 159.276 152.965 157.788 153.586 156.585C154.427 154.954 155.766 154.139 157.604 154.139C159.442 154.139 160.781 154.954 161.622 156.585ZM155.1 157.322C154.634 158.28 154.401 159.522 154.401 161.049C154.401 162.576 154.634 163.819 155.1 164.776C155.643 165.915 156.478 166.484 157.604 166.484C158.73 166.484 159.565 165.915 160.108 164.776C160.574 163.819 160.807 162.576 160.807 161.049C160.807 159.522 160.574 158.28 160.108 157.322C159.565 156.184 158.73 155.614 157.604 155.614C156.478 155.614 155.643 156.184 155.1 157.322ZM163.66 154.449H173.133V155.692C171.852 157.284 170.707 159.147 169.697 161.282C168.688 163.43 168.041 165.553 167.756 167.649H165.893C166.165 165.656 166.792 163.625 167.776 161.554C168.759 159.458 169.885 157.568 171.153 155.886H163.66V154.449Z" fill="#74757A"/>
</svg>
