<svg width="358" height="40" viewBox="0 0 358 40" fill="none" xmlns="http://www.w3.org/2000/svg">
<path d="M6.27303 0.850579V38.5951H0V0.850579H6.27303Z" fill="white"/>
<path d="M37.8047 20.3076V38.5951H31.957V22.1151C31.957 20.1658 31.4785 18.6773 30.5216 17.6495C29.5647 16.5863 28.2003 16.0547 26.4282 16.0547C24.6916 16.0547 23.2563 16.6395 22.1222 17.809C20.988 18.9786 20.421 20.4671 20.421 22.2746V38.5951H14.5733V11.9081H19.9957V15.151C21.7677 12.422 24.5144 11.0575 28.2357 11.0575C31.2482 11.0575 33.5873 11.9081 35.253 13.6093C36.9542 15.275 37.8047 17.5078 37.8047 20.3076Z" fill="white"/>
<path d="M60.8713 11.9081H66.9317L57.7348 38.5951H50.558L41.4143 11.9081H47.581L50.5049 21.105C51.7807 24.9326 53.0212 29.1501 54.2262 33.7574C55.4312 29.1501 56.6716 24.9326 57.9475 21.105L60.8713 11.9081Z" fill="white"/>
<path d="M91.6035 30.4614L95.0059 34.0232C93.1275 35.937 91.2491 37.3192 89.3708 38.1698C87.5278 38.9849 85.4723 39.3925 83.2041 39.3925C78.9866 39.3925 75.6552 38.1344 73.2097 35.6181C70.7643 33.0663 69.5416 29.664 69.5416 25.4111C69.5416 21.1936 70.7289 17.7559 73.1034 15.0978C75.5134 12.4043 78.7031 11.0575 82.6724 11.0575C86.5709 11.0575 89.5834 12.2271 91.7099 14.5662C93.8718 16.8698 94.9527 20.0772 94.9527 24.1884C94.9527 24.8618 94.9173 25.6592 94.8464 26.5806H75.283C75.4957 28.9906 76.2931 30.9044 77.6753 32.3221C79.0575 33.7397 80.9358 34.4485 83.3104 34.4485C84.8343 34.4485 86.1634 34.165 87.2975 33.5979C88.4316 33.0309 89.8669 31.9854 91.6035 30.4614ZM75.4425 22.3277H89.2113C89.105 20.2722 88.467 18.6596 87.2975 17.4901C86.1279 16.2851 84.5331 15.6826 82.513 15.6826C80.6346 15.6826 79.0752 16.2674 77.8348 17.4369C76.6298 18.571 75.8324 20.2013 75.4425 22.3277Z" fill="white"/>
<path d="M117.059 12.3334L115.995 17.3837C114.72 17.0293 113.585 16.8521 112.593 16.8521C110.75 16.8521 109.279 17.5787 108.181 19.0317C107.117 20.4494 106.586 22.4163 106.586 24.9326V38.5951H100.738V11.9081H106.161V15.8952C107.578 12.9891 109.811 11.536 112.859 11.536C113.922 11.536 115.322 11.8018 117.059 12.3334Z" fill="white"/>
<path d="M141.737 15.0978L138.547 18.9786C136.952 17.7382 135.552 16.9053 134.347 16.48C133.178 16.0193 131.849 15.7889 130.36 15.7889C128.801 15.7889 127.56 16.0901 126.639 16.6926C125.717 17.2951 125.257 18.0748 125.257 19.0317C125.257 19.6697 125.469 20.1836 125.895 20.5734C126.533 21.0696 128.535 21.7075 131.902 22.4872C135.694 23.3378 138.352 24.3656 139.876 25.5706C141.4 26.7401 142.162 28.4945 142.162 30.8335C142.162 33.3853 141.152 35.4586 139.132 37.0534C137.112 38.6128 134.418 39.3925 131.051 39.3925C128.57 39.3925 126.373 39.0204 124.459 38.2761C122.545 37.5319 120.525 36.2383 118.399 34.3954L121.801 30.5677C123.644 32.0917 125.274 33.1726 126.692 33.8106C127.968 34.3776 129.456 34.6612 131.158 34.6612C132.682 34.6612 133.94 34.3599 134.932 33.7574C135.924 33.1195 136.421 32.2689 136.421 31.2057C136.279 30.0007 135.765 29.1855 134.879 28.7603C134.028 28.335 132.221 27.8211 129.456 27.2186C125.664 26.368 123.077 25.3934 121.695 24.2947C120.348 23.196 119.675 21.5126 119.675 19.2444C119.675 16.8698 120.649 14.9206 122.599 13.3966C124.583 11.8372 127.206 11.0575 130.467 11.0575C132.735 11.0575 134.719 11.3588 136.421 11.9613C138.157 12.5638 139.929 13.6093 141.737 15.0978Z" fill="white"/>
<path d="M168.268 30.4614L171.67 34.0232C169.792 35.937 167.914 37.3192 166.035 38.1698C164.192 38.9849 162.137 39.3925 159.868 39.3925C155.651 39.3925 152.32 38.1344 149.874 35.6181C147.429 33.0663 146.206 29.664 146.206 25.4111C146.206 21.1936 147.393 17.7559 149.768 15.0978C152.178 12.4043 155.367 11.0575 159.337 11.0575C163.235 11.0575 166.248 12.2271 168.374 14.5662C170.536 16.8698 171.617 20.0772 171.617 24.1884C171.617 24.8618 171.582 25.6592 171.511 26.5806H151.947C152.16 28.9906 152.957 30.9044 154.34 32.3221C155.722 33.7397 157.6 34.4485 159.975 34.4485C161.499 34.4485 162.828 34.165 163.962 33.5979C165.096 33.0309 166.531 31.9854 168.268 30.4614ZM152.107 22.3277H165.876C165.769 20.2722 165.131 18.6596 163.962 17.4901C162.792 16.2851 161.197 15.6826 159.177 15.6826C157.299 15.6826 155.74 16.2674 154.499 17.4369C153.294 18.571 152.497 20.2013 152.107 22.3277Z" fill="white"/>
<path d="M212.025 27.6439C212.025 31.2234 210.625 34.0941 207.825 36.256C205.061 38.3825 201.357 39.4457 196.714 39.4457C190.725 39.4457 185.462 37.3547 180.926 33.1726L184.594 28.8666C186.649 30.6741 188.599 31.9854 190.441 32.8005C192.32 33.5802 194.429 33.9701 196.768 33.9701C199.567 33.9701 201.765 33.403 203.36 32.2689C204.954 31.1348 205.752 29.5045 205.752 27.3781C205.752 25.606 205.061 24.2238 203.679 23.2315C202.332 22.2391 200.329 21.743 197.671 21.743H190.388V16.6395H197.459C202.243 16.6395 204.636 14.8143 204.636 11.1639C204.636 9.46271 203.927 8.09824 202.509 7.07045C201.091 6.00723 199.195 5.47561 196.821 5.47561C194.694 5.47561 192.798 5.8123 191.133 6.48568C189.467 7.15905 187.677 8.31088 185.763 9.94116L182.042 5.6351C184.346 3.65041 186.649 2.21505 188.953 1.32903C191.257 0.44301 193.844 0 196.714 0C201.074 0 204.511 0.956902 207.028 2.87071C209.544 4.78451 210.802 7.38942 210.802 10.6854C210.802 14.6194 208.906 17.3483 205.114 18.8723C209.721 20.3962 212.025 23.3201 212.025 27.6439Z" fill="white"/>
<path d="M239.952 20.3608V38.5951H234.689V35.5649C232.917 38.1521 229.975 39.4457 225.864 39.4457C222.993 39.4457 220.672 38.8077 218.9 37.5319C217.163 36.256 216.295 34.3776 216.295 31.8968C216.295 29.0969 217.34 27.0237 219.431 25.6769C221.593 24.2593 224.535 23.2138 228.256 22.5404L234.37 21.424V20.4671C234.37 19.014 233.874 17.8976 232.881 17.1179C231.889 16.3028 230.542 15.8952 228.841 15.8952C227.211 15.8952 225.775 16.2319 224.535 16.9053C223.33 17.5432 221.912 18.6773 220.282 20.3076L216.614 16.9053C219.874 13.0068 223.897 11.0575 228.681 11.0575C232.261 11.0575 235.025 11.8904 236.975 13.5561C238.959 15.2218 239.952 17.4901 239.952 20.3608ZM234.37 28.1223V25.6769L229.745 26.6338C226.945 27.2363 224.96 27.892 223.791 28.6008C222.621 29.2741 222.036 30.2665 222.036 31.5778C222.036 32.5702 222.444 33.3499 223.259 33.9169C224.11 34.484 225.261 34.7675 226.714 34.7675C228.947 34.7675 230.772 34.1827 232.19 33.0132C233.643 31.8082 234.37 30.1779 234.37 28.1223Z" fill="white"/>
<path d="M255.574 11.9081H268.599V38.5951H263.017V29.5577H258.445L251.109 38.5951H244.411L252.332 29.1855C250.205 28.6539 248.522 27.6439 247.281 26.1554C246.076 24.6314 245.474 22.8062 245.474 20.6797C245.474 18.0217 246.395 15.8952 248.238 14.3004C250.081 12.7055 252.526 11.9081 255.574 11.9081ZM263.017 24.8795V16.5863H256.266C254.671 16.5863 253.448 16.9585 252.597 17.7027C251.747 18.4115 251.322 19.4039 251.322 20.6797C251.322 21.9911 251.747 23.0188 252.597 23.7631C253.483 24.5074 254.706 24.8795 256.266 24.8795H263.017Z" fill="white"/>
<path d="M299.379 31.1525C299.379 33.4207 298.582 35.2282 296.987 36.575C295.392 37.9217 293.194 38.5951 290.395 38.5951H275.403V11.9081H289.491C292.255 11.9081 294.47 12.5461 296.136 13.8219C297.837 15.0624 298.688 16.7812 298.688 18.9786C298.688 20.3608 298.28 21.5835 297.465 22.6467C296.65 23.6745 295.551 24.4188 294.169 24.8795C295.799 25.3048 297.075 26.0668 297.997 27.1654C298.918 28.2286 299.379 29.5577 299.379 31.1525ZM281.145 16.3205V23.0188H288.481C291.422 23.0188 292.893 21.867 292.893 19.5634C292.893 17.4015 291.44 16.3205 288.534 16.3205H281.145ZM288.64 34.0764C291.865 34.0764 293.478 32.9068 293.478 30.5677C293.478 28.2286 291.83 27.0591 288.534 27.0591H281.145V34.0764H288.64Z" fill="white"/>
<path d="M323.18 38.5951L315.152 27.1123H310.687V38.5951H304.839V11.9081H310.687V22.3277H315.206L322.595 11.9081H328.868L319.831 24.4542L329.772 38.5951H323.18Z" fill="white"/>
<path d="M351.621 11.9081H358V38.5951H352.524V28.8134C352.524 23.7454 352.595 20.0241 352.737 17.6495C350.15 22.0442 348.342 25.0921 347.315 26.7933L340.031 38.5951H333.652V11.9081H339.075V22.2214C339.075 26.1199 339.021 29.6463 338.915 32.8005C340.864 29.3273 342.654 26.2794 344.284 23.6568L351.621 11.9081Z" fill="white"/>
</svg>
