<svg width="157" height="15" viewBox="0 0 157 15" fill="none" xmlns="http://www.w3.org/2000/svg">
<path d="M0 14.2578L4.58575e-08 0.253906L3.11523 0.253906V14.2578H0Z" fill="#222222"/>
<path d="M6.25 14.2578V4.16016H9.16992C9.11784 4.85677 8.88997 5.56315 8.48633 6.2793L9.30664 6.71875C10.0879 4.8763 11.2956 3.95508 12.9297 3.95508C14.056 3.95508 14.9316 4.35547 15.5566 5.15625C16.1882 5.95052 16.5039 7.0638 16.5039 8.49609V14.2578H13.5449V9.01367C13.5449 8.18034 13.3626 7.54883 12.998 7.11914C12.6335 6.68945 12.0964 6.47461 11.3867 6.47461C10.6771 6.47461 10.1367 6.69271 9.76562 7.12891C9.39453 7.55859 9.20898 8.18685 9.20898 9.01367V14.2578H6.25Z" fill="#222222"/>
<path d="M22.1191 14.2578L17.9199 4.16016H21.123C22.0215 6.28255 22.5977 7.79622 22.8516 8.70117C23.112 9.59961 23.2617 10.6315 23.3008 11.7969H24.2383C24.2773 10.638 24.4238 9.60938 24.6777 8.71094C24.9382 7.80599 25.5208 6.28906 26.4258 4.16016H29.6191L25.4199 14.2578H22.1191Z" fill="#222222"/>
<path d="M36.2695 14.5215C34.6224 14.5215 33.265 14.0202 32.1973 13.0176C31.1361 12.015 30.6055 10.7487 30.6055 9.21875C30.6055 7.68229 31.1393 6.41602 32.207 5.41992C33.2812 4.41732 34.6419 3.91602 36.2891 3.91602C37.1875 3.91602 38.0143 4.07878 38.7695 4.4043C39.5312 4.72331 40.1595 5.15951 40.6543 5.71289C41.1556 6.26628 41.5202 6.92708 41.748 7.69531C41.9759 8.46354 42.028 9.27734 41.9043 10.1367H33.4863C33.6165 10.7812 33.929 11.2956 34.4238 11.6797C34.9251 12.0638 35.5404 12.2559 36.2695 12.2559C36.8034 12.2559 37.2852 12.1517 37.7148 11.9434C38.1445 11.735 38.4896 11.4388 38.75 11.0547H41.6895C41.2858 12.1159 40.599 12.959 39.6289 13.584C38.6654 14.209 37.5456 14.5215 36.2695 14.5215ZM33.4668 8.32031H39.1309C38.9876 7.65625 38.6621 7.13216 38.1543 6.74805C37.6465 6.35742 37.0247 6.16211 36.2891 6.16211C35.5534 6.16211 34.9349 6.35742 34.4336 6.74805C33.9323 7.13867 33.61 7.66276 33.4668 8.32031Z" fill="#222222"/>
<path d="M44.375 14.2578V4.16016H47.168C47.1615 4.5638 47.1094 4.95443 47.0117 5.33203C46.9141 5.70312 46.748 6.15885 46.5137 6.69922L47.4316 7.09961C47.8027 5.94076 48.304 5.13997 48.9355 4.69727C49.5671 4.25456 50.4525 4.08203 51.5918 4.17969V6.93359C50.0293 6.8099 48.929 7.01497 48.291 7.54883C47.653 8.07617 47.334 9.02669 47.334 10.4004V14.2578H44.375Z" fill="#222222"/>
<path d="M57.6172 14.5215C56.1849 14.5215 55.0456 14.209 54.1992 13.584C53.3529 12.959 52.9297 12.1094 52.9297 11.0352H55.752C55.752 11.4518 55.9115 11.7773 56.2305 12.0117C56.5495 12.2396 57.002 12.3535 57.5879 12.3535C58.1022 12.3535 58.4993 12.2689 58.7793 12.0996C59.0658 11.9238 59.209 11.6764 59.209 11.3574C59.209 11.0905 59.0951 10.8724 58.8672 10.7031C58.6458 10.5339 58.3529 10.4069 57.9883 10.3223C57.6302 10.2376 57.2331 10.1562 56.7969 10.0781C56.3607 10 55.9245 9.89909 55.4883 9.77539C55.0521 9.65169 54.6517 9.49219 54.2871 9.29688C53.929 9.09505 53.6361 8.80534 53.4082 8.42773C53.1868 8.05013 53.0762 7.5944 53.0762 7.06055C53.0762 6.35742 53.2715 5.76497 53.6621 5.2832C54.0592 4.79492 54.5671 4.44661 55.1855 4.23828C55.8105 4.02344 56.5267 3.91602 57.334 3.91602C58.6751 3.91602 59.7559 4.21875 60.5762 4.82422C61.3965 5.42969 61.8099 6.24023 61.8164 7.25586H59.0527C59.0397 6.88477 58.8835 6.58854 58.584 6.36719C58.2845 6.14583 57.8743 6.03516 57.3535 6.03516C56.9108 6.03516 56.556 6.12305 56.2891 6.29883C56.0221 6.4681 55.8887 6.69596 55.8887 6.98242C55.8887 7.23633 56.0026 7.44466 56.2305 7.60742C56.4583 7.77018 56.7546 7.89714 57.1191 7.98828C57.4902 8.07292 57.8971 8.1543 58.3398 8.23242C58.7826 8.31055 59.2253 8.41471 59.668 8.54492C60.1172 8.67513 60.5241 8.84115 60.8887 9.04297C61.2598 9.23828 61.5592 9.52474 61.7871 9.90234C62.015 10.2799 62.1289 10.7324 62.1289 11.2598C62.1289 12.2624 61.722 13.0566 60.9082 13.6426C60.1009 14.2285 59.0039 14.5215 57.6172 14.5215Z" fill="#222222"/>
<path d="M69.668 14.5215C68.0208 14.5215 66.6634 14.0202 65.5957 13.0176C64.5345 12.015 64.0039 10.7487 64.0039 9.21875C64.0039 7.68229 64.5378 6.41602 65.6055 5.41992C66.6797 4.41732 68.0404 3.91602 69.6875 3.91602C70.5859 3.91602 71.4128 4.07878 72.168 4.4043C72.9297 4.72331 73.5579 5.15951 74.0527 5.71289C74.554 6.26628 74.9186 6.92708 75.1465 7.69531C75.3743 8.46354 75.4264 9.27734 75.3027 10.1367H66.8848C67.015 10.7812 67.3275 11.2956 67.8223 11.6797C68.3236 12.0638 68.9388 12.2559 69.668 12.2559C70.2018 12.2559 70.6836 12.1517 71.1133 11.9434C71.543 11.735 71.888 11.4388 72.1484 11.0547H75.0879C74.6842 12.1159 73.9974 12.959 73.0273 13.584C72.0638 14.209 70.944 14.5215 69.668 14.5215ZM66.8652 8.32031H72.5293C72.3861 7.65625 72.0605 7.13216 71.5527 6.74805C71.0449 6.35742 70.4232 6.16211 69.6875 6.16211C68.9518 6.16211 68.3333 6.35742 67.832 6.74805C67.3307 7.13867 67.0085 7.66276 66.8652 8.32031Z" fill="#222222"/>
<path d="M87.2344 14.5215C83.3867 14.5215 81.349 12.946 81.1211 9.79492H84.1777C84.2624 10.5241 84.5488 11.0645 85.0371 11.416C85.5254 11.7611 86.2318 11.9336 87.1562 11.9336C88.0417 11.9336 88.7155 11.7806 89.1777 11.4746C89.6465 11.1621 89.8809 10.7161 89.8809 10.1367C89.8809 9.55729 89.6628 9.11784 89.2266 8.81836C88.7904 8.51237 88.1556 8.35938 87.3223 8.35938H84.998V5.89844H87.1758C87.9245 5.89844 88.4941 5.75846 88.8848 5.47852C89.2819 5.19857 89.4805 4.79818 89.4805 4.27734C89.4805 3.73698 89.2624 3.32031 88.8262 3.02734C88.39 2.72786 87.7812 2.57813 87 2.57812C86.1992 2.57812 85.5612 2.74414 85.0859 3.07617C84.6107 3.40169 84.3275 3.87044 84.2363 4.48242H81.2383C81.349 3.03711 81.9056 1.93034 82.9082 1.16211C83.9108 0.38737 85.3008 -5.82013e-09 87.0781 0C88.7513 5.47902e-09 90.0794 0.335286 91.0625 1.00586C92.0456 1.66992 92.5371 2.56185 92.5371 3.68164C92.5371 4.53451 92.2604 5.22786 91.707 5.76172C91.1602 6.29557 90.4115 6.60156 89.4609 6.67969V7.57812C90.5872 7.64323 91.4694 7.96224 92.1074 8.53516C92.752 9.10156 93.0742 9.84375 93.0742 10.7617C93.0742 11.9336 92.5566 12.8548 91.5215 13.5254C90.4928 14.1895 89.0638 14.5215 87.2344 14.5215Z" fill="#449429"/>
<path d="M98.7285 14.502C97.6087 14.502 96.7168 14.2415 96.0527 13.7207C95.3952 13.1934 95.0664 12.4805 95.0664 11.582C95.0664 10.7227 95.3529 10.0195 95.9258 9.47266C96.5052 8.91927 97.293 8.59375 98.2891 8.49609L101.512 8.17383C101.896 8.13477 102.195 8.02734 102.41 7.85156C102.632 7.66927 102.742 7.43815 102.742 7.1582C102.742 6.81966 102.576 6.55924 102.244 6.37695C101.919 6.18815 101.453 6.09375 100.848 6.09375C100.21 6.09375 99.6855 6.21419 99.2754 6.45508C98.8717 6.68945 98.6146 7.02474 98.5039 7.46094H95.584C95.7923 6.34115 96.3555 5.47201 97.2734 4.85352C98.1914 4.22852 99.3698 3.91602 100.809 3.91602C102.371 3.91602 103.576 4.28711 104.422 5.0293C105.268 5.77148 105.691 6.82617 105.691 8.19336V10.9961C105.691 11.3542 105.783 11.5918 105.965 11.709C106.154 11.8197 106.521 11.8555 107.068 11.8164V14.2578C105.792 14.401 104.9 14.2773 104.393 13.8867C103.891 13.4896 103.771 12.832 104.031 11.9141L103.191 11.6406C102.82 12.5521 102.247 13.2585 101.473 13.7598C100.704 14.2546 99.7897 14.502 98.7285 14.502ZM99.5098 12.334C100.33 12.334 101.053 12.0768 101.678 11.5625C102.309 11.0417 102.798 10.306 103.143 9.35547L102.41 8.93555C102.176 9.28711 101.909 9.54427 101.609 9.70703C101.31 9.86979 100.91 9.98698 100.408 10.0586L99.3047 10.1953C98.888 10.2409 98.5592 10.3678 98.3184 10.5762C98.084 10.778 97.9668 11.0319 97.9668 11.3379C97.9668 11.6504 98.1003 11.8945 98.3672 12.0703C98.6406 12.2461 99.0215 12.334 99.5098 12.334Z" fill="#449429"/>
<path d="M108.641 14.2578C109.109 12.9362 109.598 12.028 110.105 11.5332C110.613 11.0319 111.352 10.7324 112.322 10.6348V9.75586C110.187 9.6582 109.119 8.78581 109.119 7.13867C109.119 6.19466 109.467 5.46224 110.164 4.94141C110.861 4.42057 111.84 4.16016 113.104 4.16016H118.455V14.2578H115.516V11.2207H114.979C114.568 11.2207 114.236 11.2565 113.982 11.3281C113.735 11.3932 113.491 11.543 113.25 11.7773C113.009 12.0117 112.791 12.3145 112.596 12.6855C112.407 13.0501 112.169 13.5742 111.883 14.2578H108.641ZM112.059 7.73438C112.059 8.17057 112.205 8.51237 112.498 8.75977C112.798 9.00065 113.224 9.12109 113.777 9.12109H115.584V6.35742H113.777C113.217 6.35742 112.791 6.47786 112.498 6.71875C112.205 6.95312 112.059 7.29167 112.059 7.73438Z" fill="#449429"/>
<path d="M121.434 14.2578V4.16016H127.225C128.325 4.16016 129.168 4.36198 129.754 4.76562C130.34 5.16276 130.633 5.73893 130.633 6.49414C130.633 7.15169 130.405 7.66602 129.949 8.03711C129.493 8.4082 128.826 8.62305 127.947 8.68164V9.58008C128.969 9.63216 129.744 9.85026 130.271 10.2344C130.805 10.6185 131.072 11.1589 131.072 11.8555C131.072 12.6302 130.743 13.2259 130.086 13.6426C129.435 14.0527 128.491 14.2578 127.254 14.2578H121.434ZM124.266 12.2949H126.609C127.612 12.2949 128.113 11.9238 128.113 11.1816C128.113 10.4329 127.612 10.0586 126.609 10.0586H124.266V12.2949ZM124.266 8.22266H126.385C127.335 8.22266 127.811 7.86784 127.811 7.1582C127.811 6.46159 127.335 6.11328 126.385 6.11328H124.266V8.22266Z" fill="#449429"/>
<path d="M133.582 14.2578V4.16016H136.541V7.77344C136.945 7.76693 137.296 7.68555 137.596 7.5293C137.902 7.37305 138.152 7.17773 138.348 6.94336C138.549 6.70898 138.742 6.45508 138.924 6.18164C139.106 5.90169 139.311 5.63151 139.539 5.37109C139.773 5.10417 140.04 4.86654 140.34 4.6582C140.646 4.44987 141.049 4.30013 141.551 4.20898C142.052 4.11133 142.635 4.09505 143.299 4.16016V6.62109C142.96 6.60807 142.667 6.63411 142.42 6.69922C142.173 6.76432 141.971 6.85872 141.814 6.98242C141.665 7.09961 141.525 7.23633 141.395 7.39258C141.264 7.54232 141.128 7.69531 140.984 7.85156C140.848 8.00781 140.691 8.1543 140.516 8.29102C140.346 8.42773 140.115 8.54492 139.822 8.64258C139.536 8.74023 139.201 8.79883 138.816 8.81836V9.69727C139.148 9.72331 139.441 9.76888 139.695 9.83398C139.949 9.89258 140.206 9.99674 140.467 10.1465C140.734 10.2897 140.984 10.4655 141.219 10.6738C141.453 10.8757 141.717 11.1523 142.01 11.5039C142.303 11.8555 142.599 12.2461 142.898 12.6758C143.204 13.099 143.566 13.6263 143.982 14.2578H140.438C139.721 13.112 139.168 12.2884 138.777 11.7871C138.387 11.2858 138.032 10.9408 137.713 10.752C137.394 10.5632 137.003 10.4655 136.541 10.459V14.2578H133.582Z" fill="#449429"/>
<path d="M153.201 14.2578C153.227 12.4805 153.312 11.1849 153.455 10.3711C153.605 9.55078 153.921 8.56771 154.402 7.42188L153.514 7.06055C152.967 8.27799 152.381 9.38802 151.756 10.3906C151.131 11.3932 150.219 12.6823 149.021 14.2578H146.062V4.16016H149.002C148.976 5.94401 148.888 7.24609 148.738 8.06641C148.595 8.88021 148.283 9.85026 147.801 10.9766L148.68 11.3574C149.233 10.1465 149.822 9.03971 150.447 8.03711C151.079 7.03451 151.99 5.74219 153.182 4.16016H156.141V14.2578H153.201Z" fill="#449429"/>
</svg>
