<svg width="162" height="18" viewBox="0 0 162 18" fill="none" xmlns="http://www.w3.org/2000/svg">
<path d="M2.832 0.383999V17.424H0V0.383999H2.832Z" fill="#222222"/>
<path d="M17.0672 9.168V17.424H14.4272V9.984C14.4272 9.104 14.2112 8.432 13.7792 7.968C13.3472 7.488 12.7312 7.248 11.9312 7.248C11.1472 7.248 10.4992 7.512 9.98719 8.04C9.47519 8.568 9.21919 9.24 9.21919 10.056V17.424H6.57919V5.376H9.02719V6.84C9.82719 5.608 11.0672 4.992 12.7472 4.992C14.1072 4.992 15.1632 5.376 15.9152 6.144C16.6832 6.896 17.0672 7.904 17.0672 9.168Z" fill="#222222"/>
<path d="M27.4807 5.376H30.2167L26.0648 17.424H22.8247L18.6967 5.376H21.4807L22.8007 9.528C23.3767 11.256 23.9367 13.16 24.4807 15.24C25.0247 13.16 25.5847 11.256 26.1607 9.528L27.4807 5.376Z" fill="#222222"/>
<path d="M41.355 13.752L42.891 15.36C42.043 16.224 41.195 16.848 40.347 17.232C39.515 17.6 38.587 17.784 37.563 17.784C35.659 17.784 34.155 17.216 33.051 16.08C31.947 14.928 31.395 13.392 31.395 11.472C31.395 9.568 31.931 8.016 33.003 6.816C34.091 5.6 35.531 4.992 37.323 4.992C39.083 4.992 40.443 5.52 41.403 6.576C42.379 7.616 42.867 9.064 42.867 10.92C42.867 11.224 42.851 11.584 42.819 12H33.987C34.083 13.088 34.443 13.952 35.067 14.592C35.691 15.232 36.539 15.552 37.611 15.552C38.299 15.552 38.899 15.424 39.411 15.168C39.923 14.912 40.571 14.44 41.355 13.752ZM34.059 10.08H40.275C40.227 9.152 39.939 8.424 39.411 7.896C38.883 7.352 38.163 7.08 37.251 7.08C36.403 7.08 35.699 7.344 35.139 7.872C34.595 8.384 34.235 9.12 34.059 10.08Z" fill="#222222"/>
<path d="M52.8469 5.568L52.3669 7.848C51.7909 7.688 51.2789 7.608 50.8309 7.608C49.9989 7.608 49.3349 7.936 48.8389 8.592C48.3589 9.232 48.1189 10.12 48.1189 11.256V17.424H45.4789V5.376H47.9269V7.176C48.5669 5.864 49.5749 5.208 50.9509 5.208C51.4309 5.208 52.0629 5.328 52.8469 5.568Z" fill="#222222"/>
<path d="M63.9879 6.816L62.5479 8.568C61.8279 8.008 61.1959 7.632 60.6519 7.44C60.1239 7.232 59.5239 7.128 58.8519 7.128C58.1479 7.128 57.5879 7.264 57.1719 7.536C56.7559 7.808 56.5479 8.16 56.5479 8.592C56.5479 8.88 56.6439 9.112 56.8359 9.288C57.1239 9.512 58.0279 9.8 59.5479 10.152C61.2599 10.536 62.4599 11 63.1479 11.544C63.8359 12.072 64.1799 12.864 64.1799 13.92C64.1799 15.072 63.7239 16.008 62.8119 16.728C61.8999 17.432 60.6839 17.784 59.1639 17.784C58.0439 17.784 57.0519 17.616 56.1879 17.28C55.3239 16.944 54.4119 16.36 53.4519 15.528L54.9879 13.8C55.8199 14.488 56.5559 14.976 57.1959 15.264C57.7719 15.52 58.4439 15.648 59.2119 15.648C59.8999 15.648 60.4679 15.512 60.9159 15.24C61.3639 14.952 61.5879 14.568 61.5879 14.088C61.5239 13.544 61.2919 13.176 60.8919 12.984C60.5079 12.792 59.6919 12.56 58.4439 12.288C56.7319 11.904 55.5639 11.464 54.9399 10.968C54.3319 10.472 54.0279 9.712 54.0279 8.688C54.0279 7.616 54.4679 6.736 55.3479 6.048C56.2439 5.344 57.4279 4.992 58.8999 4.992C59.9239 4.992 60.8199 5.128 61.5879 5.4C62.3719 5.672 63.1719 6.144 63.9879 6.816Z" fill="#222222"/>
<path d="M75.9656 13.752L77.5016 15.36C76.6536 16.224 75.8056 16.848 74.9576 17.232C74.1256 17.6 73.1976 17.784 72.1736 17.784C70.2696 17.784 68.7656 17.216 67.6616 16.08C66.5576 14.928 66.0056 13.392 66.0056 11.472C66.0056 9.568 66.5416 8.016 67.6136 6.816C68.7016 5.6 70.1416 4.992 71.9336 4.992C73.6936 4.992 75.0536 5.52 76.0136 6.576C76.9896 7.616 77.4776 9.064 77.4776 10.92C77.4776 11.224 77.4616 11.584 77.4296 12H68.5976C68.6936 13.088 69.0536 13.952 69.6776 14.592C70.3016 15.232 71.1496 15.552 72.2216 15.552C72.9096 15.552 73.5096 15.424 74.0216 15.168C74.5336 14.912 75.1816 14.44 75.9656 13.752ZM68.6696 10.08H74.8856C74.8376 9.152 74.5496 8.424 74.0216 7.896C73.4936 7.352 72.7736 7.08 71.8616 7.08C71.0136 7.08 70.3096 7.344 69.7496 7.872C69.2056 8.384 68.8456 9.12 68.6696 10.08Z" fill="#222222"/>
<path d="M95.72 12.48C95.72 14.096 95.088 15.392 93.824 16.368C92.576 17.328 90.904 17.808 88.808 17.808C86.104 17.808 83.728 16.864 81.68 14.976L83.336 13.032C84.264 13.848 85.144 14.44 85.976 14.808C86.824 15.16 87.776 15.336 88.832 15.336C90.096 15.336 91.088 15.08 91.808 14.568C92.528 14.056 92.888 13.32 92.888 12.36C92.888 11.56 92.576 10.936 91.952 10.488C91.344 10.04 90.44 9.816 89.24 9.816H85.952V7.512H89.144C91.304 7.512 92.384 6.688 92.384 5.04C92.384 4.272 92.064 3.656 91.424 3.192C90.784 2.712 89.928 2.472 88.856 2.472C87.896 2.472 87.04 2.624 86.288 2.928C85.536 3.232 84.728 3.752 83.864 4.488L82.184 2.544C83.224 1.648 84.264 0.999999 85.304 0.599999C86.344 0.2 87.512 0 88.808 0C90.776 0 92.328 0.432 93.464 1.296C94.6 2.16 95.168 3.336 95.168 4.824C95.168 6.6 94.312 7.832 92.6 8.52C94.68 9.208 95.72 10.528 95.72 12.48Z" fill="#449429"/>
<path d="M108.328 9.192V17.424H105.952V16.056C105.152 17.224 103.824 17.808 101.968 17.808C100.672 17.808 99.6237 17.52 98.8237 16.944C98.0397 16.368 97.6477 15.52 97.6477 14.4C97.6477 13.136 98.1197 12.2 99.0637 11.592C100.04 10.952 101.368 10.48 103.048 10.176L105.808 9.672V9.24C105.808 8.584 105.584 8.08 105.136 7.728C104.688 7.36 104.08 7.176 103.312 7.176C102.576 7.176 101.928 7.328 101.368 7.632C100.824 7.92 100.184 8.432 99.4477 9.168L97.7917 7.632C99.2637 5.872 101.08 4.992 103.24 4.992C104.856 4.992 106.104 5.368 106.984 6.12C107.88 6.872 108.328 7.896 108.328 9.192ZM105.808 12.696V11.592L103.72 12.024C102.456 12.296 101.56 12.592 101.032 12.912C100.504 13.216 100.24 13.664 100.24 14.256C100.24 14.704 100.424 15.056 100.792 15.312C101.176 15.568 101.696 15.696 102.352 15.696C103.36 15.696 104.184 15.432 104.824 14.904C105.48 14.36 105.808 13.624 105.808 12.696Z" fill="#449429"/>
<path d="M115.381 5.376H121.261V17.424H118.741V13.344H116.677L113.365 17.424H110.341L113.917 13.176C112.957 12.936 112.197 12.48 111.637 11.808C111.093 11.12 110.821 10.296 110.821 9.336C110.821 8.136 111.237 7.176 112.069 6.456C112.901 5.736 114.005 5.376 115.381 5.376ZM118.741 11.232V7.488H115.693C114.973 7.488 114.421 7.656 114.037 7.992C113.653 8.312 113.461 8.76 113.461 9.336C113.461 9.928 113.653 10.392 114.037 10.728C114.437 11.064 114.989 11.232 115.693 11.232H118.741Z" fill="#449429"/>
<path d="M135.156 14.064C135.156 15.088 134.797 15.904 134.077 16.512C133.357 17.12 132.364 17.424 131.1 17.424H124.332V5.376H130.693C131.941 5.376 132.941 5.664 133.693 6.24C134.461 6.8 134.844 7.576 134.844 8.568C134.844 9.192 134.66 9.744 134.292 10.224C133.924 10.688 133.429 11.024 132.805 11.232C133.541 11.424 134.117 11.768 134.533 12.264C134.949 12.744 135.156 13.344 135.156 14.064ZM126.924 7.368V10.392H130.236C131.564 10.392 132.229 9.872 132.229 8.832C132.229 7.856 131.572 7.368 130.26 7.368H126.924ZM130.309 15.384C131.765 15.384 132.492 14.856 132.492 13.8C132.492 12.744 131.748 12.216 130.26 12.216H126.924V15.384H130.309Z" fill="#449429"/>
<path d="M145.902 17.424L142.278 12.24H140.262V17.424H137.622V5.376H140.262V10.08H142.302L145.638 5.376H148.47L144.39 11.04L148.878 17.424H145.902Z" fill="#449429"/>
<path d="M158.741 5.376H161.621V17.424H159.149V13.008C159.149 10.72 159.181 9.04 159.245 7.968C158.077 9.952 157.261 11.328 156.797 12.096L153.509 17.424H150.629V5.376H153.077V10.032C153.077 11.792 153.053 13.384 153.005 14.808C153.885 13.24 154.693 11.864 155.429 10.68L158.741 5.376Z" fill="#449429"/>
</svg>
