<svg width="244" height="244" viewBox="0 0 244 244" fill="none" xmlns="http://www.w3.org/2000/svg">
<path d="M167.75 221.125C167.75 223.147 166.947 225.087 165.517 226.517C164.087 227.947 162.147 228.75 160.125 228.75H83.875C81.8527 228.75 79.9133 227.947 78.4833 226.517C77.0534 225.087 76.25 223.147 76.25 221.125C76.25 219.103 77.0534 217.163 78.4833 215.733C79.9133 214.304 81.8527 213.5 83.875 213.5H160.125C162.147 213.5 164.087 214.304 165.517 215.733C166.947 217.163 167.75 219.103 167.75 221.125ZM205.875 99.1252C205.908 111.836 203.036 124.387 197.48 135.82C191.923 147.252 183.828 157.264 173.812 165.091C171.939 166.526 170.419 168.371 169.369 170.484C168.318 172.597 167.764 174.922 167.75 177.281V183C167.75 187.045 166.143 190.924 163.283 193.784C160.423 196.643 156.545 198.25 152.5 198.25H91.5C87.4555 198.25 83.5766 196.643 80.7166 193.784C77.8567 190.924 76.25 187.045 76.25 183V177.281C76.2485 174.95 75.7124 172.65 74.683 170.558C73.6536 168.466 72.1583 166.638 70.3121 165.215C60.3214 157.434 52.2317 147.482 46.6553 136.113C41.0789 124.744 38.1618 112.255 38.125 99.5922C37.8772 54.1663 74.5916 16.3367 119.979 15.2502C131.163 14.9807 142.287 16.9511 152.698 21.0453C163.108 25.1396 172.595 31.2751 180.599 39.0906C188.602 46.9061 194.962 56.2438 199.303 66.5539C203.644 76.8641 205.878 87.9384 205.875 99.1252ZM175.27 90.223C173.293 79.1791 167.98 69.0061 160.045 61.0735C152.111 53.141 141.937 47.8298 130.893 45.855C129.905 45.6885 128.894 45.7182 127.918 45.9423C126.942 46.1665 126.02 46.5807 125.204 47.1613C124.388 47.7419 123.694 48.4775 123.162 49.3262C122.631 50.1749 122.271 51.12 122.105 52.1075C121.938 53.0951 121.968 54.1058 122.192 55.0818C122.416 56.0579 122.83 56.9803 123.411 57.7964C123.992 58.6124 124.727 59.3061 125.576 59.8378C126.425 60.3695 127.37 60.7289 128.357 60.8953C144.151 63.5545 157.552 76.9555 160.23 92.7774C160.532 94.5532 161.452 96.165 162.829 97.3269C164.205 98.4888 165.949 99.1259 167.75 99.1252C168.181 99.1226 168.611 99.0875 169.037 99.0203C171.03 98.6801 172.806 97.5621 173.975 95.9124C175.144 94.2626 175.61 92.2162 175.27 90.223Z" fill="#449429"/>
</svg>
