<svg width="244" height="244" viewBox="0 0 244 244" fill="none" xmlns="http://www.w3.org/2000/svg">
<path d="M95.3126 34.3125C95.3126 29.0342 96.8778 23.8744 99.8103 19.4857C102.743 15.0969 106.911 11.6763 111.787 9.65642C116.664 7.6365 122.03 7.108 127.207 8.13774C132.383 9.16749 137.139 11.7092 140.871 15.4415C144.603 19.1739 147.145 23.9291 148.175 29.106C149.205 34.2828 148.676 39.6488 146.656 44.5253C144.636 49.4018 141.216 53.5698 136.827 56.5023C132.438 59.4348 127.278 61 122 61C114.922 61 108.134 58.1882 103.129 53.1834C98.1243 48.1785 95.3126 41.3904 95.3126 34.3125ZM216.931 88.2307C216.237 84.8144 214.371 81.7479 211.656 79.5605C208.942 77.3731 205.549 76.2022 202.063 76.25H41.9376C38.4608 76.2498 35.0884 77.4376 32.3791 79.6167C29.6699 81.7957 27.7866 84.8351 27.0413 88.231C26.2961 91.627 26.7336 95.1757 28.2814 98.289C29.8292 101.402 32.3943 103.893 35.5517 105.349H35.6089L86.9728 127.967L66.0803 207.362C64.4859 211.009 64.3809 215.136 65.7878 218.86C67.1947 222.584 70.002 225.61 73.61 227.292C75.6265 228.249 77.8303 228.747 80.0626 228.75C82.9374 228.754 85.7548 227.946 88.19 226.418C90.6251 224.89 92.5788 222.705 93.8258 220.115L122 171.562L150.194 220.172C151.947 223.739 155.024 226.481 158.769 227.812C162.514 229.144 166.631 228.961 170.244 227.303C173.856 225.644 176.678 222.64 178.108 218.931C179.538 215.223 179.464 211.102 177.901 207.448L157.008 128.052L208.477 105.406C211.671 103.982 214.266 101.485 215.81 98.3471C217.354 95.2096 217.751 91.6303 216.931 88.2307Z" fill="#449429"/>
</svg>
