<svg width="48" height="48" viewBox="0 0 48 48" fill="none" xmlns="http://www.w3.org/2000/svg">
<path d="M22.9784 1.43627C23.4782 0.733569 24.5218 0.733569 25.0216 1.43627L28.0705 5.72254C28.4191 6.21263 29.0666 6.38612 29.6136 6.136L34.3971 3.94842C35.1813 3.58978 36.0851 4.11158 36.1666 4.97006L36.6639 10.2065C36.7208 10.8052 37.1948 11.2792 37.7935 11.3361L43.0299 11.8334C43.8884 11.9149 44.4102 12.8187 44.0516 13.6029L41.864 18.3864C41.6139 18.9334 41.7874 19.5809 42.2775 19.9295L46.5637 22.9784C47.2664 23.4782 47.2664 24.5218 46.5637 25.0216L42.2775 28.0705C41.7874 28.4191 41.6139 29.0666 41.864 29.6136L44.0516 34.3971C44.4102 35.1813 43.8884 36.0851 43.0299 36.1666L37.7935 36.6639C37.1948 36.7208 36.7208 37.1948 36.6639 37.7935L36.1666 43.0299C36.0851 43.8884 35.1813 44.4102 34.3971 44.0516L29.6136 41.864C29.0666 41.6139 28.4191 41.7874 28.0705 42.2775L25.0216 46.5637C24.5218 47.2664 23.4782 47.2664 22.9784 46.5637L19.9295 42.2775C19.5809 41.7874 18.9334 41.6139 18.3864 41.864L13.6029 44.0516C12.8187 44.4102 11.9149 43.8884 11.8334 43.0299L11.3361 37.7935C11.2792 37.1948 10.8052 36.7208 10.2065 36.6639L4.97006 36.1666C4.11158 36.0851 3.58978 35.1813 3.94842 34.3971L6.136 29.6136C6.38612 29.0666 6.21262 28.4191 5.72254 28.0705L1.43627 25.0216C0.733569 24.5218 0.733569 23.4782 1.43627 22.9784L5.72254 19.9295C6.21263 19.5809 6.38612 18.9334 6.136 18.3864L3.94842 13.6029C3.58978 12.8187 4.11158 11.9149 4.97006 11.8334L10.2065 11.3361C10.8052 11.2792 11.2792 10.8052 11.3361 10.2065L11.8334 4.97006C11.9149 4.11158 12.8187 3.58978 13.6029 3.94842L18.3864 6.136C18.9334 6.38612 19.5809 6.21262 19.9295 5.72254L22.9784 1.43627Z" fill="#FF5A49"/>
<path d="M33.5306 19.2807L21.5306 31.2807C21.4609 31.3504 21.3782 31.4057 21.2871 31.4435C21.1961 31.4812 21.0985 31.5006 20.9999 31.5006C20.9014 31.5006 20.8038 31.4812 20.7127 31.4435C20.6217 31.4057 20.539 31.3504 20.4693 31.2807L15.2193 26.0307C15.0786 25.8899 14.9995 25.6991 14.9995 25.5001C14.9995 25.301 15.0786 25.1102 15.2193 24.9694C15.36 24.8287 15.5509 24.7496 15.7499 24.7496C15.949 24.7496 16.1398 24.8287 16.2806 24.9694L20.9999 29.6897L32.4693 18.2194C32.61 18.0787 32.8009 17.9996 32.9999 17.9996C33.199 17.9996 33.3898 18.0787 33.5306 18.2194C33.6713 18.3602 33.7503 18.551 33.7503 18.7501C33.7503 18.9491 33.6713 19.1399 33.5306 19.2807Z" fill="white"/>
</svg>
