<svg width="211" height="23" viewBox="0 0 211 23" fill="none" xmlns="http://www.w3.org/2000/svg">
<path d="M2.84801 0.959961V18H0.0160065V0.959961H2.84801Z" fill="#222222"/>
<path d="M17.0832 9.74396V18H14.4432V10.56C14.4432 9.67996 14.2272 9.00796 13.7952 8.54396C13.3632 8.06396 12.7472 7.82396 11.9472 7.82396C11.1632 7.82396 10.5152 8.08796 10.0032 8.61596C9.49119 9.14396 9.23519 9.81596 9.23519 10.632V18H6.59519V5.95196H9.04319V7.41596C9.84319 6.18396 11.0832 5.56796 12.7632 5.56796C14.1232 5.56796 15.1792 5.95196 15.9312 6.71996C16.6992 7.47196 17.0832 8.47996 17.0832 9.74396Z" fill="#222222"/>
<path d="M27.4968 5.95196H30.2328L26.0808 18H22.8408L18.7128 5.95196H21.4968L22.8168 10.104C23.3928 11.832 23.9528 13.736 24.4968 15.816C25.0408 13.736 25.6008 11.832 26.1768 10.104L27.4968 5.95196Z" fill="#222222"/>
<path d="M41.371 14.328L42.907 15.936C42.059 16.8 41.211 17.424 40.363 17.808C39.531 18.176 38.603 18.36 37.579 18.36C35.675 18.36 34.171 17.792 33.067 16.656C31.963 15.504 31.411 13.968 31.411 12.048C31.411 10.144 31.947 8.59196 33.019 7.39196C34.107 6.17596 35.547 5.56796 37.339 5.56796C39.099 5.56796 40.459 6.09596 41.419 7.15196C42.395 8.19196 42.883 9.63996 42.883 11.496C42.883 11.8 42.867 12.16 42.835 12.576H34.003C34.099 13.664 34.459 14.528 35.083 15.168C35.707 15.808 36.555 16.128 37.627 16.128C38.315 16.128 38.915 16 39.427 15.744C39.939 15.488 40.587 15.016 41.371 14.328ZM34.075 10.656H40.291C40.243 9.72796 39.955 8.99996 39.427 8.47196C38.899 7.92796 38.179 7.65596 37.267 7.65596C36.419 7.65596 35.715 7.91996 35.155 8.44796C34.611 8.95996 34.251 9.69596 34.075 10.656Z" fill="#222222"/>
<path d="M52.8629 6.14396L52.3829 8.42396C51.8069 8.26396 51.2949 8.18396 50.8469 8.18396C50.0149 8.18396 49.3509 8.51196 48.8549 9.16796C48.3749 9.80796 48.1349 10.696 48.1349 11.832V18H45.4949V5.95196H47.9429V7.75196C48.5829 6.43996 49.5909 5.78396 50.9669 5.78396C51.4469 5.78396 52.0789 5.90396 52.8629 6.14396Z" fill="#222222"/>
<path d="M64.0039 7.39196L62.5639 9.14396C61.8439 8.58396 61.2119 8.20796 60.6679 8.01596C60.1399 7.80796 59.5399 7.70396 58.8679 7.70396C58.1639 7.70396 57.6039 7.83996 57.1879 8.11196C56.7719 8.38396 56.5639 8.73596 56.5639 9.16796C56.5639 9.45596 56.6599 9.68796 56.8519 9.86396C57.1399 10.088 58.0439 10.376 59.5639 10.728C61.2759 11.112 62.4759 11.576 63.1639 12.12C63.8519 12.648 64.1959 13.44 64.1959 14.496C64.1959 15.648 63.7399 16.584 62.8279 17.304C61.9159 18.008 60.6999 18.36 59.1799 18.36C58.0599 18.36 57.0679 18.192 56.2039 17.856C55.3399 17.52 54.4279 16.936 53.4679 16.104L55.0039 14.376C55.8359 15.064 56.5719 15.552 57.2119 15.84C57.7879 16.096 58.4599 16.224 59.2279 16.224C59.9159 16.224 60.4839 16.088 60.9319 15.816C61.3799 15.528 61.6039 15.144 61.6039 14.664C61.5399 14.12 61.3079 13.752 60.9079 13.56C60.5239 13.368 59.7079 13.136 58.4599 12.864C56.7479 12.48 55.5799 12.04 54.9559 11.544C54.3479 11.048 54.0439 10.288 54.0439 9.26396C54.0439 8.19196 54.4839 7.31196 55.3639 6.62396C56.2599 5.91996 57.4439 5.56796 58.9159 5.56796C59.9399 5.56796 60.8359 5.70396 61.6039 5.97596C62.3879 6.24796 63.1879 6.71996 64.0039 7.39196Z" fill="#222222"/>
<path d="M75.9816 14.328L77.5176 15.936C76.6696 16.8 75.8216 17.424 74.9736 17.808C74.1416 18.176 73.2136 18.36 72.1896 18.36C70.2856 18.36 68.7816 17.792 67.6776 16.656C66.5736 15.504 66.0216 13.968 66.0216 12.048C66.0216 10.144 66.5576 8.59196 67.6296 7.39196C68.7176 6.17596 70.1576 5.56796 71.9496 5.56796C73.7096 5.56796 75.0696 6.09596 76.0296 7.15196C77.0056 8.19196 77.4936 9.63996 77.4936 11.496C77.4936 11.8 77.4776 12.16 77.4456 12.576H68.6136C68.7096 13.664 69.0696 14.528 69.6936 15.168C70.3176 15.808 71.1656 16.128 72.2376 16.128C72.9256 16.128 73.5256 16 74.0376 15.744C74.5496 15.488 75.1976 15.016 75.9816 14.328ZM68.6856 10.656H74.9016C74.8536 9.72796 74.5656 8.99996 74.0376 8.47196C73.5096 7.92796 72.7896 7.65596 71.8776 7.65596C71.0296 7.65596 70.3256 7.91996 69.7656 8.44796C69.2216 8.95996 68.8616 9.69596 68.6856 10.656Z" fill="#222222"/>
<path d="M84.96 0.959961H96.768V15.6H98.856V21.552H96.072V18H84.288V21.552H81.504V15.6H82.992C83.52 14.832 83.968 13.832 84.336 12.6C84.704 11.368 84.896 9.63996 84.912 7.41596L84.96 0.959961ZM85.944 15.6H93.936V3.35996H87.6L87.552 7.51196C87.536 9.79996 87.368 11.552 87.048 12.768C86.76 14 86.392 14.944 85.944 15.6Z" fill="#449429"/>
<path d="M112.713 11.976C112.713 13.848 112.137 15.384 110.985 16.584C109.849 17.768 108.385 18.36 106.593 18.36C104.785 18.36 103.305 17.768 102.153 16.584C101.017 15.4 100.449 13.864 100.449 11.976C100.449 10.072 101.017 8.52796 102.153 7.34396C103.305 6.15996 104.785 5.56796 106.593 5.56796C108.385 5.56796 109.849 6.16796 110.985 7.36796C112.137 8.55196 112.713 10.088 112.713 11.976ZM103.137 11.976C103.137 13.224 103.449 14.232 104.073 15C104.697 15.752 105.537 16.128 106.593 16.128C107.617 16.128 108.441 15.752 109.065 15C109.705 14.232 110.025 13.224 110.025 11.976C110.025 10.712 109.713 9.70396 109.089 8.95196C108.465 8.18396 107.633 7.79996 106.593 7.79996C105.537 7.79996 104.697 8.18396 104.073 8.95196C103.449 9.70396 103.137 10.712 103.137 11.976Z" fill="#449429"/>
<path d="M123.347 18L119.723 12.816H117.707V18H115.067V5.95196H117.707V10.656H119.747L123.083 5.95196H125.915L121.835 11.616L126.323 18H123.347Z" fill="#449429"/>
<path d="M135.424 5.95196H138.112L133.384 19.488C133 20.64 132.512 21.456 131.92 21.936C131.328 22.416 130.504 22.656 129.448 22.656C128.712 22.656 128.008 22.568 127.336 22.392L127.768 20.4C128.344 20.496 128.8 20.544 129.136 20.544C129.616 20.544 130.016 20.416 130.336 20.16C130.656 19.904 130.912 19.464 131.104 18.84L131.176 18.624L126.64 5.95196H129.424L130.6 9.47996C131.416 11.896 132.032 13.784 132.448 15.144C133.12 12.936 133.72 11.04 134.248 9.45596L135.424 5.95196Z" fill="#449429"/>
<path d="M150.59 5.95196H154.406V18H151.934V12.984C151.934 11.176 151.966 9.44796 152.03 7.79996L151.814 8.44796L151.31 9.91196C151.054 10.632 150.806 11.296 150.566 11.904L148.334 18H145.982L143.75 11.904L142.31 7.82396C142.374 9.50396 142.406 11.224 142.406 12.984V18H139.958V5.95196H143.87L145.742 11.064C146.302 12.536 146.79 13.976 147.206 15.384C147.798 13.512 148.286 12.072 148.67 11.064L150.59 5.95196Z" fill="#449429"/>
<path d="M166.729 14.328L168.265 15.936C167.417 16.8 166.569 17.424 165.721 17.808C164.889 18.176 163.961 18.36 162.937 18.36C161.033 18.36 159.529 17.792 158.425 16.656C157.321 15.504 156.769 13.968 156.769 12.048C156.769 10.144 157.305 8.59196 158.377 7.39196C159.465 6.17596 160.905 5.56796 162.697 5.56796C164.457 5.56796 165.817 6.09596 166.777 7.15196C167.753 8.19196 168.241 9.63996 168.241 11.496C168.241 11.8 168.225 12.16 168.193 12.576H159.361C159.457 13.664 159.817 14.528 160.441 15.168C161.065 15.808 161.913 16.128 162.985 16.128C163.673 16.128 164.273 16 164.785 15.744C165.297 15.488 165.945 15.016 166.729 14.328ZM159.433 10.656H165.649C165.601 9.72796 165.313 8.99996 164.785 8.47196C164.257 7.92796 163.537 7.65596 162.625 7.65596C161.777 7.65596 161.073 7.91996 160.513 8.44796C159.969 8.95996 159.609 9.69596 159.433 10.656Z" fill="#449429"/>
<path d="M181.125 18H178.485V12.816H173.301V18H170.661V5.95196H173.301V10.656H178.485V5.95196H181.125V18Z" fill="#449429"/>
<path d="M193.784 8.08796H189.776V18H187.136V8.08796H183.152V5.95196H193.784V8.08796Z" fill="#449429"/>
<path d="M195.809 18V5.95196H198.449V9.74396H201.617C203.025 9.74396 204.145 10.112 204.977 10.848C205.825 11.584 206.249 12.592 206.249 13.872C206.249 15.152 205.825 16.16 204.977 16.896C204.145 17.632 203.025 18 201.617 18H195.809ZM198.449 15.84H201.257C202.793 15.84 203.561 15.184 203.561 13.872C203.561 12.56 202.793 11.904 201.257 11.904H198.449V15.84ZM210.305 5.95196V18H207.665V5.95196H210.305Z" fill="#449429"/>
</svg>
