<svg width="244" height="244" viewBox="0 0 244 244" fill="none" xmlns="http://www.w3.org/2000/svg">
<path d="M122 22.875C102.395 22.875 83.2302 28.6886 66.9291 39.5806C50.6281 50.4726 37.923 65.9538 30.4205 84.0665C22.9179 102.179 20.9549 122.11 24.7797 141.338C28.6045 160.567 38.0452 178.229 51.9081 192.092C65.771 205.955 83.4334 215.396 102.662 219.22C121.89 223.045 141.821 221.082 159.934 213.58C178.046 206.077 193.527 193.372 204.419 177.071C215.311 160.77 221.125 141.605 221.125 122C221.097 95.7189 210.645 70.5222 192.061 51.9387C173.478 33.3552 148.281 22.9028 122 22.875ZM87.6875 91.5C89.9497 91.5 92.161 92.1708 94.0419 93.4276C95.9228 94.6843 97.3887 96.4706 98.2544 98.5606C99.1201 100.65 99.3466 102.95 98.9053 105.169C98.464 107.388 97.3746 109.425 95.7751 111.025C94.1755 112.625 92.1376 113.714 89.9189 114.155C87.7002 114.597 85.4005 114.37 83.3106 113.504C81.2207 112.639 79.4344 111.173 78.1776 109.292C76.9208 107.411 76.25 105.2 76.25 102.938C76.25 99.9041 77.4551 96.9949 79.6 94.85C81.745 92.705 84.6541 91.5 87.6875 91.5ZM166.721 148.688C156.913 165.644 140.615 175.375 122 175.375C103.386 175.375 87.0871 165.653 77.2794 148.688C76.7277 147.82 76.3573 146.849 76.1904 145.834C76.0235 144.82 76.0636 143.782 76.3082 142.783C76.5529 141.784 76.9971 140.845 77.614 140.022C78.231 139.199 79.0081 138.51 79.8984 137.995C80.7887 137.481 81.774 137.152 82.7948 137.028C83.8157 136.904 84.8511 136.987 85.8388 137.274C86.8264 137.56 87.7459 138.044 88.5419 138.695C89.3379 139.346 89.994 140.151 90.4707 141.062C97.5905 153.367 108.78 160.125 122 160.125C135.22 160.125 146.41 153.358 153.529 141.062C154.006 140.151 154.662 139.346 155.458 138.695C156.254 138.044 157.174 137.56 158.161 137.274C159.149 136.987 160.184 136.904 161.205 137.028C162.226 137.152 163.211 137.481 164.102 137.995C164.992 138.51 165.769 139.199 166.386 140.022C167.003 140.845 167.447 141.784 167.692 142.783C167.937 143.782 167.977 144.82 167.81 145.834C167.643 146.849 167.272 147.82 166.721 148.688ZM156.313 114.375C154.05 114.375 151.839 113.704 149.958 112.447C148.077 111.191 146.611 109.404 145.746 107.314C144.88 105.225 144.653 102.925 145.095 100.706C145.536 98.4875 146.625 96.4495 148.225 94.85C149.825 93.2504 151.863 92.1611 154.081 91.7198C156.3 91.2784 158.6 91.5049 160.689 92.3706C162.779 93.2363 164.566 94.7023 165.822 96.5832C167.079 98.4641 167.75 100.675 167.75 102.938C167.75 105.971 166.545 108.88 164.4 111.025C162.255 113.17 159.346 114.375 156.313 114.375Z" fill="#449429"/>
</svg>
