<svg width="244" height="244" viewBox="0 0 244 244" fill="none" xmlns="http://www.w3.org/2000/svg">
<path d="M156.761 186.46C157.511 187.61 157.937 188.942 157.992 190.314C158.048 191.687 157.733 193.049 157.079 194.256C156.424 195.464 155.456 196.473 154.276 197.176C153.096 197.879 151.748 198.25 150.375 198.25H9.75066C8.37716 198.25 7.02922 197.879 5.84923 197.176C4.66924 196.473 3.70103 195.464 3.04689 194.256C2.39275 193.049 2.07697 191.687 2.13292 190.314C2.18886 188.942 2.61445 187.61 3.36472 186.46C14.0979 169.939 29.8853 157.331 48.3713 150.517C38.1519 143.714 30.3932 133.802 26.2426 122.248C22.0919 110.694 21.7698 98.1111 25.3237 86.3598C28.8776 74.6084 36.1189 64.3127 45.9768 56.9952C55.8346 49.6776 67.7857 45.7267 80.0627 45.7267C92.3397 45.7267 104.291 49.6776 114.149 56.9952C124.007 64.3127 131.248 74.6084 134.802 86.3598C138.356 98.1111 138.033 110.694 133.883 122.248C129.732 133.802 121.974 143.714 111.754 150.517C130.24 157.331 146.027 169.939 156.761 186.46ZM240.55 186.317C229.814 169.865 214.062 157.312 195.629 150.517C207.694 142.391 216.208 129.972 219.439 115.789C222.67 101.606 220.374 86.7246 213.02 74.1743C205.666 61.624 193.805 52.3478 179.853 48.2341C165.9 44.1203 150.904 45.4781 137.917 52.031C137.421 52.2874 136.987 52.6499 136.646 53.0927C136.305 53.5355 136.065 54.0479 135.944 54.5936C135.823 55.1392 135.824 55.7048 135.946 56.2502C136.068 56.7956 136.308 57.3076 136.65 57.7498C146.307 69.7955 151.852 84.6169 152.475 100.043C153.098 115.469 148.764 130.689 140.11 143.474C139.55 144.309 139.343 145.332 139.535 146.319C139.726 147.306 140.299 148.178 141.129 148.745C152.413 156.62 162.073 166.597 169.58 178.129C172.608 182.766 173.844 188.346 173.059 193.827C172.971 194.373 173.002 194.931 173.15 195.463C173.299 195.995 173.561 196.488 173.919 196.909C174.278 197.329 174.723 197.667 175.224 197.899C175.726 198.13 176.272 198.25 176.824 198.25H234.297C235.976 198.25 237.609 197.697 238.941 196.675C240.273 195.653 241.231 194.22 241.665 192.598C241.93 191.531 241.968 190.421 241.776 189.339C241.584 188.257 241.166 187.227 240.55 186.317Z" fill="#449429"/>
</svg>
