<svg width="40" height="40" viewBox="0 0 40 40" fill="none" xmlns="http://www.w3.org/2000/svg">
<rect width="40" height="40" rx="8" fill="#255DF0"/>
<path d="M12.4088 7.56635C12.5597 6.66243 13.3418 6 14.2583 6H22.3929C23.6743 6 24.5782 7.2568 24.1704 8.47163L20.0587 20.7216C19.8024 21.4854 19.0868 22 18.2812 22H12.2139C11.055 22 10.1737 20.9593 10.3644 19.8163L12.4088 7.56635Z" fill="white"/>
<path d="M15.2401 18.1542C15.3143 17.4968 15.8703 17 16.5319 17H26.3752C27.451 17 28.0612 18.2321 27.4093 19.0879L15.8541 34.254C15.0543 35.3037 13.3802 34.6317 13.5282 33.3204L15.2401 18.1542Z" fill="white"/>
<path d="M16.8421 11L15.5252 17.0537C15.2552 18.2946 16.2005 19.4677 17.4706 19.4677V19.4677C18.7594 19.4677 19.7085 20.6737 19.4057 21.9264L18.4211 26" stroke="#222222" stroke-width="1.375" stroke-linecap="round" stroke-linejoin="round"/>
</svg>
