<svg width="512" height="512" viewBox="0 0 512 512" fill="none" xmlns="http://www.w3.org/2000/svg">
<rect width="512" height="512" rx="127.75" fill="#3F9E37"/>
<path fill-rule="evenodd" clip-rule="evenodd" d="M303 246.906C303 220.448 324.448 199 350.906 199H375.094C401.552 199 423 220.448 423 246.906V342.25C423.114 343.858 423.172 345.481 423.172 347.118C423.172 348.755 423.114 350.378 423 351.986V358.53C423 358.789 422.789 359 422.53 359V359C422.302 359 422.106 359.165 422.065 359.389C416.29 391.014 388.597 414.985 355.305 414.985H155.695C122.466 414.985 94.8148 391.104 88.9677 359.569C88.917 359.295 88.6792 359.095 88.4014 359.095V359.095C88.0848 359.095 87.8281 358.838 87.8281 358.521V347.118V247.313C87.8281 220.856 109.276 199.407 135.734 199.407H159.688C186.145 199.407 207.594 220.856 207.594 247.313V247.313C207.594 249.003 209.897 249.74 210.991 248.453C219.778 238.11 232.88 231.547 247.516 231.547H263.484C277.928 231.547 290.88 237.939 299.663 248.049C300.754 249.305 303 248.569 303 246.906V246.906Z" fill="white"/>
<circle cx="147.711" cy="163.68" r="43.9141" fill="white"/>
<circle cx="363.289" cy="163.68" r="43.9141" fill="white"/>
<circle cx="255.5" cy="191.625" r="47.9062" fill="white"/>
<path d="M135.734 341.716L241.298 301.591C249.136 298.612 257.53 304.402 257.53 312.787V333.068C257.53 341.688 266.361 347.485 274.269 344.057L375.266 300.282" stroke="#222222" stroke-width="15.9688" stroke-linecap="round"/>
</svg>
